<svg xmlns="http://www.w3.org/2000/svg" xml:space="preserve" id="svg5048" x="0" y="0" style="enable-background:new 0 0 1226 349" version="1.1" viewBox="0 0 1226 349"><style id="style3852" type="text/css">.st1{fill:#ccc;stroke:#000;stroke-width:2}.st2{fill:#fcfcfc}</style><g id="Layer_1"><path id="path3854" d="M6.5.5h1213c3.3 0 6 2.7 6 6v336c0 3.3-2.7 6-6 6H6.5c-3.3 0-6-2.7-6-6V6.5c0-3.3 2.7-6 6-6z" style="fill:#eee;stroke:#ddd"/></g><g id="Layer_2"><path id="path3857" d="M13.5 9.8h38c2.2 0 4 1.8 4 4v38c0 2.2-1.8 4-4 4h-38c-2.2 0-4-1.8-4-4v-38c0-2.3 1.8-4 4-4z" class="st1"/><path id="path3859" d="M121.5 9.8h38c2.2 0 4 1.8 4 4v38c0 2.2-1.8 4-4 4h-38c-2.2 0-4-1.8-4-4v-38c0-2.3 1.8-4 4-4z" class="st1"/><path id="path3861" d="M175.5 9.8h38c2.2 0 4 1.8 4 4v38c0 2.2-1.8 4-4 4h-38c-2.2 0-4-1.8-4-4v-38c0-2.3 1.8-4 4-4z" class="st1"/><path id="path3863" d="M229.5 9.8h38c2.2 0 4 1.8 4 4v38c0 2.2-1.8 4-4 4h-38c-2.2 0-4-1.8-4-4v-38c0-2.3 1.8-4 4-4z" class="st1"/><path id="path3865" d="M283.5 9.8h38c2.2 0 4 1.8 4 4v38c0 2.2-1.8 4-4 4h-38c-2.2 0-4-1.8-4-4v-38c0-2.3 1.8-4 4-4z" class="st1"/><path id="path3867" d="M364.5 9.8h38c2.2 0 4 1.8 4 4v38c0 2.2-1.8 4-4 4h-38c-2.2 0-4-1.8-4-4v-38c0-2.3 1.8-4 4-4z" class="st1"/><path id="path3869" d="M418.5 9.8h38c2.2 0 4 1.8 4 4v38c0 2.2-1.8 4-4 4h-38c-2.2 0-4-1.8-4-4v-38c0-2.3 1.8-4 4-4z" class="st1"/><path id="path3871" d="M472.5 9.8h38c2.2 0 4 1.8 4 4v38c0 2.2-1.8 4-4 4h-38c-2.2 0-4-1.8-4-4v-38c0-2.3 1.8-4 4-4z" class="st1"/><path id="path3873" d="M526.5 9.8h38c2.2 0 4 1.8 4 4v38c0 2.2-1.8 4-4 4h-38c-2.2 0-4-1.8-4-4v-38c0-2.3 1.8-4 4-4z" class="st1"/><path id="path3875" d="M607.5 9.8h38c2.2 0 4 1.8 4 4v38c0 2.2-1.8 4-4 4h-38c-2.2 0-4-1.8-4-4v-38c0-2.3 1.8-4 4-4z" class="st1"/><path id="path3877" d="M661.5 9.8h38c2.2 0 4 1.8 4 4v38c0 2.2-1.8 4-4 4h-38c-2.2 0-4-1.8-4-4v-38c0-2.3 1.8-4 4-4z" class="st1"/><path id="path3879" d="M715.5 9.8h38c2.2 0 4 1.8 4 4v38c0 2.2-1.8 4-4 4h-38c-2.2 0-4-1.8-4-4v-38c0-2.3 1.8-4 4-4z" class="st1"/><path id="path3881" d="M769.5 9.8h38c2.2 0 4 1.8 4 4v38c0 2.2-1.8 4-4 4h-38c-2.2 0-4-1.8-4-4v-38c0-2.3 1.8-4 4-4z" class="st1"/><path id="path3883" d="M837 9.8h38c2.2 0 4 1.8 4 4v38c0 2.2-1.8 4-4 4h-38c-2.2 0-4-1.8-4-4v-38c0-2.3 1.8-4 4-4z" class="st1"/><path id="path3885" d="M891 9.8h38c2.2 0 4 1.8 4 4v38c0 2.2-1.8 4-4 4h-38c-2.2 0-4-1.8-4-4v-38c0-2.3 1.8-4 4-4z" class="st1"/><path id="path3887" d="M945 9.8h38c2.2 0 4 1.8 4 4v38c0 2.2-1.8 4-4 4h-38c-2.2 0-4-1.8-4-4v-38c0-2.3 1.8-4 4-4z" class="st1"/><path id="path3889" d="M13.5 77.2h38c2.2 0 4 1.8 4 4v38c0 2.2-1.8 4-4 4h-38c-2.2 0-4-1.8-4-4v-38c0-2.2 1.8-4 4-4z" class="st1"/><path id="path3891" d="M67.5 77.2h38c2.2 0 4 1.8 4 4v38c0 2.2-1.8 4-4 4h-38c-2.2 0-4-1.8-4-4v-38c0-2.2 1.8-4 4-4z" class="st1"/><path id="path3893" d="M121.5 77.2h38c2.2 0 4 1.8 4 4v38c0 2.2-1.8 4-4 4h-38c-2.2 0-4-1.8-4-4v-38c0-2.2 1.8-4 4-4z" class="st1"/><path id="path3895" d="M175.5 77.2h38c2.2 0 4 1.8 4 4v38c0 2.2-1.8 4-4 4h-38c-2.2 0-4-1.8-4-4v-38c0-2.2 1.8-4 4-4z" class="st1"/><path id="path3897" d="M229.5 77.2h38c2.2 0 4 1.8 4 4v38c0 2.2-1.8 4-4 4h-38c-2.2 0-4-1.8-4-4v-38c0-2.2 1.8-4 4-4z" class="st1"/><path id="path3899" d="M283.5 77.2h38c2.2 0 4 1.8 4 4v38c0 2.2-1.8 4-4 4h-38c-2.2 0-4-1.8-4-4v-38c0-2.2 1.8-4 4-4z" class="st1"/><path id="path3901" d="M337.5 77.2h38c2.2 0 4 1.8 4 4v38c0 2.2-1.8 4-4 4h-38c-2.2 0-4-1.8-4-4v-38c0-2.2 1.8-4 4-4z" class="st1"/><path id="path3903" d="M391.5 77.2h38c2.2 0 4 1.8 4 4v38c0 2.2-1.8 4-4 4h-38c-2.2 0-4-1.8-4-4v-38c0-2.2 1.8-4 4-4z" class="st1"/><path id="path3905" d="M445.5 77.2h38c2.2 0 4 1.8 4 4v38c0 2.2-1.8 4-4 4h-38c-2.2 0-4-1.8-4-4v-38c0-2.2 1.8-4 4-4z" class="st1"/><path id="path3907" d="M499.5 77.2h38c2.2 0 4 1.8 4 4v38c0 2.2-1.8 4-4 4h-38c-2.2 0-4-1.8-4-4v-38c0-2.2 1.8-4 4-4z" class="st1"/><path id="path3909" d="M553.5 77.2h38c2.2 0 4 1.8 4 4v38c0 2.2-1.8 4-4 4h-38c-2.2 0-4-1.8-4-4v-38c0-2.2 1.8-4 4-4z" class="st1"/><path id="path3911" d="M607.5 77.2h38c2.2 0 4 1.8 4 4v38c0 2.2-1.8 4-4 4h-38c-2.2 0-4-1.8-4-4v-38c0-2.2 1.8-4 4-4z" class="st1"/><path id="path3913" d="M661.5 77.2h38c2.2 0 4 1.8 4 4v38c0 2.2-1.8 4-4 4h-38c-2.2 0-4-1.8-4-4v-38c0-2.2 1.8-4 4-4z" class="st1"/><path id="path3915" d="M715.5 77.2h92c2.2 0 4 1.8 4 4v38c0 2.2-1.8 4-4 4h-92c-2.2 0-4-1.8-4-4v-38c0-2.2 1.8-4 4-4z" class="st1"/><path id="path3917" d="M837 77.2h38c2.2 0 4 1.8 4 4v38c0 2.2-1.8 4-4 4h-38c-2.2 0-4-1.8-4-4v-38c0-2.2 1.8-4 4-4z" class="st1"/><path id="path3919" d="M891 77.2h38c2.2 0 4 1.8 4 4v38c0 2.2-1.8 4-4 4h-38c-2.2 0-4-1.8-4-4v-38c0-2.2 1.8-4 4-4z" class="st1"/><path id="path3921" d="M945 77.2h38c2.2 0 4 1.8 4 4v38c0 2.2-1.8 4-4 4h-38c-2.2 0-4-1.8-4-4v-38c0-2.2 1.8-4 4-4z" class="st1"/><path id="path3923" d="M1012.5 77.2h38c2.2 0 4 1.8 4 4v38c0 2.2-1.8 4-4 4h-38c-2.2 0-4-1.8-4-4v-38c0-2.2 1.8-4 4-4z" class="st1"/><path id="path3925" d="M1066.5 77.2h38c2.2 0 4 1.8 4 4v38c0 2.2-1.8 4-4 4h-38c-2.2 0-4-1.8-4-4v-38c0-2.2 1.8-4 4-4z" class="st1"/><path id="path3927" d="M1120.5 77.2h38c2.2 0 4 1.8 4 4v38c0 2.2-1.8 4-4 4h-38c-2.2 0-4-1.8-4-4v-38c0-2.2 1.8-4 4-4z" class="st1"/><path id="path3929" d="M1174.5 77.2h38c2.2 0 4 1.8 4 4v38c0 2.2-1.8 4-4 4h-38c-2.2 0-4-1.8-4-4v-38c0-2.2 1.8-4 4-4z" class="st1"/><path id="path3931" d="M13.5 131.2h65c2.2 0 4 1.8 4 4v38c0 2.2-1.8 4-4 4h-65c-2.2 0-4-1.8-4-4v-38c0-2.2 1.8-4 4-4z" class="st1"/><path id="path3933" d="M94.5 131.2h38c2.2 0 4 1.8 4 4v38c0 2.2-1.8 4-4 4h-38c-2.2 0-4-1.8-4-4v-38c0-2.2 1.8-4 4-4z" class="st1"/><path id="path3935" d="M148.5 131.2h38c2.2 0 4 1.8 4 4v38c0 2.2-1.8 4-4 4h-38c-2.2 0-4-1.8-4-4v-38c0-2.2 1.8-4 4-4z" class="st1"/><path id="path3937" d="M202.5 131.2h38c2.2 0 4 1.8 4 4v38c0 2.2-1.8 4-4 4h-38c-2.2 0-4-1.8-4-4v-38c0-2.2 1.8-4 4-4z" class="st1"/><path id="path3939" d="M256.5 131.2h38c2.2 0 4 1.8 4 4v38c0 2.2-1.8 4-4 4h-38c-2.2 0-4-1.8-4-4v-38c0-2.2 1.8-4 4-4z" class="st1"/><path id="path3941" d="M310.5 131.2h38c2.2 0 4 1.8 4 4v38c0 2.2-1.8 4-4 4h-38c-2.2 0-4-1.8-4-4v-38c0-2.2 1.8-4 4-4z" class="st1"/><path id="path3943" d="M364.5 131.2h38c2.2 0 4 1.8 4 4v38c0 2.2-1.8 4-4 4h-38c-2.2 0-4-1.8-4-4v-38c0-2.2 1.8-4 4-4z" class="st1"/><path id="path3945" d="M418.5 131.2h38c2.2 0 4 1.8 4 4v38c0 2.2-1.8 4-4 4h-38c-2.2 0-4-1.8-4-4v-38c0-2.2 1.8-4 4-4z" class="st1"/><path id="path3947" d="M472.5 131.2h38c2.2 0 4 1.8 4 4v38c0 2.2-1.8 4-4 4h-38c-2.2 0-4-1.8-4-4v-38c0-2.2 1.8-4 4-4z" class="st1"/><path id="path3949" d="M526.5 131.2h38c2.2 0 4 1.8 4 4v38c0 2.2-1.8 4-4 4h-38c-2.2 0-4-1.8-4-4v-38c0-2.2 1.8-4 4-4z" class="st1"/><path id="path3951" d="M580.5 131.2h38c2.2 0 4 1.8 4 4v38c0 2.2-1.8 4-4 4h-38c-2.2 0-4-1.8-4-4v-38c0-2.2 1.8-4 4-4z" class="st1"/><path id="path3953" d="M634.5 131.2h38c2.2 0 4 1.8 4 4v38c0 2.2-1.8 4-4 4h-38c-2.2 0-4-1.8-4-4v-38c0-2.2 1.8-4 4-4z" class="st1"/><path id="path3955" d="M688.5 131.2h38c2.2 0 4 1.8 4 4v38c0 2.2-1.8 4-4 4h-38c-2.2 0-4-1.8-4-4v-38c0-2.2 1.8-4 4-4z" class="st1"/><path id="path3957" d="M742.5 131.2h65c2.2 0 4 1.8 4 4v38c0 2.2-1.8 4-4 4h-65c-2.2 0-4-1.8-4-4v-38c0-2.2 1.8-4 4-4z" class="st1"/><path id="path3959" d="M837 131.2h38c2.2 0 4 1.8 4 4v38c0 2.2-1.8 4-4 4h-38c-2.2 0-4-1.8-4-4v-38c0-2.2 1.8-4 4-4z" class="st1"/><path id="path3961" d="M891 131.2h38c2.2 0 4 1.8 4 4v38c0 2.2-1.8 4-4 4h-38c-2.2 0-4-1.8-4-4v-38c0-2.2 1.8-4 4-4z" class="st1"/><path id="path3963" d="M945 131.2h38c2.2 0 4 1.8 4 4v38c0 2.2-1.8 4-4 4h-38c-2.2 0-4-1.8-4-4v-38c0-2.2 1.8-4 4-4z" class="st1"/><path id="path3965" d="M1012.5 131.2h38c2.2 0 4 1.8 4 4v38c0 2.2-1.8 4-4 4h-38c-2.2 0-4-1.8-4-4v-38c0-2.2 1.8-4 4-4z" class="st1"/><path id="path3967" d="M1066.5 131.2h38c2.2 0 4 1.8 4 4v38c0 2.2-1.8 4-4 4h-38c-2.2 0-4-1.8-4-4v-38c0-2.2 1.8-4 4-4z" class="st1"/><path id="path3969" d="M1120.5 131.2h38c2.2 0 4 1.8 4 4v38c0 2.2-1.8 4-4 4h-38c-2.2 0-4-1.8-4-4v-38c0-2.2 1.8-4 4-4z" class="st1"/><path id="path3971" d="M1174.5 131.2h38c2.2 0 4 1.8 4 4v92c0 2.2-1.8 4-4 4h-38c-2.2 0-4-1.8-4-4v-92c0-2.2 1.8-4 4-4z" class="st1"/><path id="path3973" d="M13.5 185.2H92c2.2 0 4 1.8 4 4v38c0 2.2-1.8 4-4 4H13.5c-2.2 0-4-1.8-4-4v-38c0-2.2 1.8-4 4-4z" class="st1"/><path id="path3975" d="M108 185.2h38c2.2 0 4 1.8 4 4v38c0 2.2-1.8 4-4 4h-38c-2.2 0-4-1.8-4-4v-38c0-2.2 1.8-4 4-4z" class="st1"/><path id="path3977" d="M162 185.2h38c2.2 0 4 1.8 4 4v38c0 2.2-1.8 4-4 4h-38c-2.2 0-4-1.8-4-4v-38c0-2.2 1.8-4 4-4z" class="st1"/><path id="path3979" d="M216 185.2h38c2.2 0 4 1.8 4 4v38c0 2.2-1.8 4-4 4h-38c-2.2 0-4-1.8-4-4v-38c0-2.2 1.8-4 4-4z" class="st1"/><path id="path3981" d="M270 185.2h38c2.2 0 4 1.8 4 4v38c0 2.2-1.8 4-4 4h-38c-2.2 0-4-1.8-4-4v-38c0-2.2 1.8-4 4-4z" class="st1"/><path id="path3983" d="M324 185.2h38c2.2 0 4 1.8 4 4v38c0 2.2-1.8 4-4 4h-38c-2.2 0-4-1.8-4-4v-38c0-2.2 1.8-4 4-4z" class="st1"/><path id="path3985" d="M378 185.2h38c2.2 0 4 1.8 4 4v38c0 2.2-1.8 4-4 4h-38c-2.2 0-4-1.8-4-4v-38c0-2.2 1.8-4 4-4z" class="st1"/><path id="path3987" d="M432 185.2h38c2.2 0 4 1.8 4 4v38c0 2.2-1.8 4-4 4h-38c-2.2 0-4-1.8-4-4v-38c0-2.2 1.8-4 4-4z" class="st1"/><path id="path3989" d="M486 185.2h38c2.2 0 4 1.8 4 4v38c0 2.2-1.8 4-4 4h-38c-2.2 0-4-1.8-4-4v-38c0-2.2 1.8-4 4-4z" class="st1"/><path id="path3991" d="M540 185.2h38c2.2 0 4 1.8 4 4v38c0 2.2-1.8 4-4 4h-38c-2.2 0-4-1.8-4-4v-38c0-2.2 1.8-4 4-4z" class="st1"/><path id="path3993" d="M594 185.2h38c2.2 0 4 1.8 4 4v38c0 2.2-1.8 4-4 4h-38c-2.2 0-4-1.8-4-4v-38c0-2.2 1.8-4 4-4z" class="st1"/><path id="path3995" d="M648 185.2h38c2.2 0 4 1.8 4 4v38c0 2.2-1.8 4-4 4h-38c-2.2 0-4-1.8-4-4v-38c0-2.2 1.8-4 4-4z" class="st1"/><path id="path3997" d="M702 185.2h105.5c2.2 0 4 1.8 4 4v38c0 2.2-1.8 4-4 4H702c-2.2 0-4-1.8-4-4v-38c0-2.2 1.8-4 4-4z" class="st1"/><path id="path3999" d="M1012.5 185.2h38c2.2 0 4 1.8 4 4v38c0 2.2-1.8 4-4 4h-38c-2.2 0-4-1.8-4-4v-38c0-2.2 1.8-4 4-4z" class="st1"/><path id="path4001" d="M1066.5 185.2h38c2.2 0 4 1.8 4 4v38c0 2.2-1.8 4-4 4h-38c-2.2 0-4-1.8-4-4v-38c0-2.2 1.8-4 4-4z" class="st1"/><path id="path4003" d="M1120.5 185.2h38c2.2 0 4 1.8 4 4v38c0 2.2-1.8 4-4 4h-38c-2.2 0-4-1.8-4-4v-38c0-2.2 1.8-4 4-4z" class="st1"/><path id="path4005" d="M13.5 239.2H119c2.2 0 4 1.8 4 4v38c0 2.2-1.8 4-4 4H13.5c-2.2 0-4-1.8-4-4v-38c0-2.2 1.8-4 4-4z" class="st1"/><path id="path4007" d="M135 239.2h38c2.2 0 4 1.8 4 4v38c0 2.2-1.8 4-4 4h-38c-2.2 0-4-1.8-4-4v-38c0-2.2 1.8-4 4-4z" class="st1"/><path id="path4009" d="M189 239.2h38c2.2 0 4 1.8 4 4v38c0 2.2-1.8 4-4 4h-38c-2.2 0-4-1.8-4-4v-38c0-2.2 1.8-4 4-4z" class="st1"/><path id="path4011" d="M243 239.2h38c2.2 0 4 1.8 4 4v38c0 2.2-1.8 4-4 4h-38c-2.2 0-4-1.8-4-4v-38c0-2.2 1.8-4 4-4z" class="st1"/><path id="path4013" d="M297 239.2h38c2.2 0 4 1.8 4 4v38c0 2.2-1.8 4-4 4h-38c-2.2 0-4-1.8-4-4v-38c0-2.2 1.8-4 4-4z" class="st1"/><path id="path4015" d="M351 239.2h38c2.2 0 4 1.8 4 4v38c0 2.2-1.8 4-4 4h-38c-2.2 0-4-1.8-4-4v-38c0-2.2 1.8-4 4-4z" class="st1"/><path id="path4017" d="M405 239.2h38c2.2 0 4 1.8 4 4v38c0 2.2-1.8 4-4 4h-38c-2.2 0-4-1.8-4-4v-38c0-2.2 1.8-4 4-4z" class="st1"/><path id="path4019" d="M459 239.2h38c2.2 0 4 1.8 4 4v38c0 2.2-1.8 4-4 4h-38c-2.2 0-4-1.8-4-4v-38c0-2.2 1.8-4 4-4z" class="st1"/><path id="path4021" d="M513 239.2h38c2.2 0 4 1.8 4 4v38c0 2.2-1.8 4-4 4h-38c-2.2 0-4-1.8-4-4v-38c0-2.2 1.8-4 4-4z" class="st1"/><path id="path4023" d="M567 239.2h38c2.2 0 4 1.8 4 4v38c0 2.2-1.8 4-4 4h-38c-2.2 0-4-1.8-4-4v-38c0-2.2 1.8-4 4-4z" class="st1"/><path id="path4025" d="M621 239.2h38c2.2 0 4 1.8 4 4v38c0 2.2-1.8 4-4 4h-38c-2.2 0-4-1.8-4-4v-38c0-2.2 1.8-4 4-4z" class="st1"/><path id="path4027" d="M675 239.2h132.5c2.2 0 4 1.8 4 4v38c0 2.2-1.8 4-4 4H675c-2.2 0-4-1.8-4-4v-38c0-2.2 1.8-4 4-4z" class="st1"/><path id="path4029" d="M891 239.2h38c2.2 0 4 1.8 4 4v38c0 2.2-1.8 4-4 4h-38c-2.2 0-4-1.8-4-4v-38c0-2.2 1.8-4 4-4z" class="st1"/><path id="path4031" d="M1012.5 239.2h38c2.2 0 4 1.8 4 4v38c0 2.2-1.8 4-4 4h-38c-2.2 0-4-1.8-4-4v-38c0-2.2 1.8-4 4-4z" class="st1"/><path id="path4033" d="M1066.5 239.2h38c2.2 0 4 1.8 4 4v38c0 2.2-1.8 4-4 4h-38c-2.2 0-4-1.8-4-4v-38c0-2.2 1.8-4 4-4z" class="st1"/><path id="path4035" d="M1120.5 239.2h38c2.2 0 4 1.8 4 4v38c0 2.2-1.8 4-4 4h-38c-2.2 0-4-1.8-4-4v-38c0-2.2 1.8-4 4-4z" class="st1"/><path id="path4037" d="M1174.5 239.2h38c2.2 0 4 1.8 4 4v92c0 2.2-1.8 4-4 4h-38c-2.2 0-4-1.8-4-4v-92c0-2.2 1.8-4 4-4z" class="st1"/><path id="path4039" d="M13.5 293.2H65c2.2 0 4 1.8 4 4v38c0 2.2-1.8 4-4 4H13.5c-2.2 0-4-1.8-4-4v-38c0-2.2 1.8-4 4-4z" class="st1"/><path id="path4041" d="M81 293.2h51.5c2.2 0 4 1.8 4 4v38c0 2.2-1.8 4-4 4H81c-2.2 0-4-1.8-4-4v-38c0-2.2 1.8-4 4-4z" class="st1"/><path id="path4043" d="M148.5 293.2H200c2.2 0 4 1.8 4 4v38c0 2.2-1.8 4-4 4h-51.5c-2.2 0-4-1.8-4-4v-38c0-2.2 1.8-4 4-4z" class="st1"/><path id="path4045" d="M216 293.2h321.5c2.2 0 4 1.8 4 4v38c0 2.2-1.8 4-4 4H216c-2.2 0-4-1.8-4-4v-38c0-2.2 1.8-4 4-4z" class="st1"/><path id="path4047" d="M553.5 293.2H605c2.2 0 4 1.8 4 4v38c0 2.2-1.8 4-4 4h-51.5c-2.2 0-4-1.8-4-4v-38c0-2.2 1.8-4 4-4z" class="st1"/><path id="path4049" d="M621 293.2h51.5c2.2 0 4 1.8 4 4v38c0 2.2-1.8 4-4 4H621c-2.2 0-4-1.8-4-4v-38c0-2.2 1.8-4 4-4z" class="st1"/><path id="path4051" d="M688.5 293.2H740c2.2 0 4 1.8 4 4v38c0 2.2-1.8 4-4 4h-51.5c-2.2 0-4-1.8-4-4v-38c0-2.2 1.8-4 4-4z" class="st1"/><path id="path4053" d="M756 293.2h51.5c2.2 0 4 1.8 4 4v38c0 2.2-1.8 4-4 4H756c-2.2 0-4-1.8-4-4v-38c0-2.2 1.8-4 4-4z" class="st1"/><path id="path4055" d="M837 293.2h38c2.2 0 4 1.8 4 4v38c0 2.2-1.8 4-4 4h-38c-2.2 0-4-1.8-4-4v-38c0-2.2 1.8-4 4-4z" class="st1"/><path id="path4057" d="M891 293.2h38c2.2 0 4 1.8 4 4v38c0 2.2-1.8 4-4 4h-38c-2.2 0-4-1.8-4-4v-38c0-2.2 1.8-4 4-4z" class="st1"/><path id="path4059" d="M945 293.2h38c2.2 0 4 1.8 4 4v38c0 2.2-1.8 4-4 4h-38c-2.2 0-4-1.8-4-4v-38c0-2.2 1.8-4 4-4z" class="st1"/><path id="path4061" d="M1012.5 293.2h92c2.2 0 4 1.8 4 4v38c0 2.2-1.8 4-4 4h-92c-2.2 0-4-1.8-4-4v-38c0-2.2 1.8-4 4-4z" class="st1"/><path id="path4063" d="M1120.5 293.2h38c2.2 0 4 1.8 4 4v38c0 2.2-1.8 4-4 4h-38c-2.2 0-4-1.8-4-4v-38c0-2.2 1.8-4 4-4z" class="st1"/></g><g id="Layer_3"><path id="path4066" d="M14.5 10.8h36c2.2 0 4 1.8 4 4v34c0 2.2-1.8 4-4 4h-36c-2.2 0-4-1.8-4-4v-34c0-2.3 1.8-4 4-4z" class="st2"/><path id="path4068" d="M122.5 10.8h36c2.2 0 4 1.8 4 4v34c0 2.2-1.8 4-4 4h-36c-2.2 0-4-1.8-4-4v-34c0-2.3 1.8-4 4-4z" class="st2"/><path id="path4070" d="M176.5 10.8h36c2.2 0 4 1.8 4 4v34c0 2.2-1.8 4-4 4h-36c-2.2 0-4-1.8-4-4v-34c0-2.3 1.8-4 4-4z" class="st2"/><path id="path4072" d="M230.5 10.8h36c2.2 0 4 1.8 4 4v34c0 2.2-1.8 4-4 4h-36c-2.2 0-4-1.8-4-4v-34c0-2.3 1.8-4 4-4z" class="st2"/><path id="path4074" d="M284.5 10.8h36c2.2 0 4 1.8 4 4v34c0 2.2-1.8 4-4 4h-36c-2.2 0-4-1.8-4-4v-34c0-2.3 1.8-4 4-4z" class="st2"/><path id="path4076" d="M365.5 10.8h36c2.2 0 4 1.8 4 4v34c0 2.2-1.8 4-4 4h-36c-2.2 0-4-1.8-4-4v-34c0-2.3 1.8-4 4-4z" class="st2"/><path id="path4078" d="M419.5 10.8h36c2.2 0 4 1.8 4 4v34c0 2.2-1.8 4-4 4h-36c-2.2 0-4-1.8-4-4v-34c0-2.3 1.8-4 4-4z" class="st2"/><path id="path4080" d="M473.5 10.8h36c2.2 0 4 1.8 4 4v34c0 2.2-1.8 4-4 4h-36c-2.2 0-4-1.8-4-4v-34c0-2.3 1.8-4 4-4z" class="st2"/><path id="path4082" d="M527.5 10.8h36c2.2 0 4 1.8 4 4v34c0 2.2-1.8 4-4 4h-36c-2.2 0-4-1.8-4-4v-34c0-2.3 1.8-4 4-4z" class="st2"/><path id="path4084" d="M608.5 10.8h36c2.2 0 4 1.8 4 4v34c0 2.2-1.8 4-4 4h-36c-2.2 0-4-1.8-4-4v-34c0-2.3 1.8-4 4-4z" class="st2"/><path id="path4086" d="M662.5 10.8h36c2.2 0 4 1.8 4 4v34c0 2.2-1.8 4-4 4h-36c-2.2 0-4-1.8-4-4v-34c0-2.3 1.8-4 4-4z" class="st2"/><path id="path4088" d="M716.5 10.8h36c2.2 0 4 1.8 4 4v34c0 2.2-1.8 4-4 4h-36c-2.2 0-4-1.8-4-4v-34c0-2.3 1.8-4 4-4z" class="st2"/><path id="path4090" d="M770.5 10.8h36c2.2 0 4 1.8 4 4v34c0 2.2-1.8 4-4 4h-36c-2.2 0-4-1.8-4-4v-34c0-2.3 1.8-4 4-4z" class="st2"/><path id="path4092" d="M838 10.8h36c2.2 0 4 1.8 4 4v34c0 2.2-1.8 4-4 4h-36c-2.2 0-4-1.8-4-4v-34c0-2.3 1.8-4 4-4z" class="st2"/><path id="path4094" d="M892 10.8h36c2.2 0 4 1.8 4 4v34c0 2.2-1.8 4-4 4h-36c-2.2 0-4-1.8-4-4v-34c0-2.3 1.8-4 4-4z" class="st2"/><path id="path4096" d="M946 10.8h36c2.2 0 4 1.8 4 4v34c0 2.2-1.8 4-4 4h-36c-2.2 0-4-1.8-4-4v-34c0-2.3 1.8-4 4-4z" class="st2"/><path id="path4098" d="M14.5 78.2h36c2.2 0 4 1.8 4 4v34c0 2.2-1.8 4-4 4h-36c-2.2 0-4-1.8-4-4v-34c0-2.2 1.8-4 4-4z" class="st2"/><path id="path4100" d="M68.5 78.2h36c2.2 0 4 1.8 4 4v34c0 2.2-1.8 4-4 4h-36c-2.2 0-4-1.8-4-4v-34c0-2.2 1.8-4 4-4z" class="st2"/><path id="path4102" d="M122.5 78.2h36c2.2 0 4 1.8 4 4v34c0 2.2-1.8 4-4 4h-36c-2.2 0-4-1.8-4-4v-34c0-2.2 1.8-4 4-4z" class="st2"/><path id="path4104" d="M176.5 78.2h36c2.2 0 4 1.8 4 4v34c0 2.2-1.8 4-4 4h-36c-2.2 0-4-1.8-4-4v-34c0-2.2 1.8-4 4-4z" class="st2"/><path id="path4106" d="M230.5 78.2h36c2.2 0 4 1.8 4 4v34c0 2.2-1.8 4-4 4h-36c-2.2 0-4-1.8-4-4v-34c0-2.2 1.8-4 4-4z" class="st2"/><path id="path4108" d="M284.5 78.2h36c2.2 0 4 1.8 4 4v34c0 2.2-1.8 4-4 4h-36c-2.2 0-4-1.8-4-4v-34c0-2.2 1.8-4 4-4z" class="st2"/><path id="path4110" d="M338.5 78.2h36c2.2 0 4 1.8 4 4v34c0 2.2-1.8 4-4 4h-36c-2.2 0-4-1.8-4-4v-34c0-2.2 1.8-4 4-4z" class="st2"/><path id="path4112" d="M392.5 78.2h36c2.2 0 4 1.8 4 4v34c0 2.2-1.8 4-4 4h-36c-2.2 0-4-1.8-4-4v-34c0-2.2 1.8-4 4-4z" class="st2"/><path id="path4114" d="M446.5 78.2h36c2.2 0 4 1.8 4 4v34c0 2.2-1.8 4-4 4h-36c-2.2 0-4-1.8-4-4v-34c0-2.2 1.8-4 4-4z" class="st2"/><path id="path4116" d="M500.5 78.2h36c2.2 0 4 1.8 4 4v34c0 2.2-1.8 4-4 4h-36c-2.2 0-4-1.8-4-4v-34c0-2.2 1.8-4 4-4z" class="st2"/><path id="path4118" d="M554.5 78.2h36c2.2 0 4 1.8 4 4v34c0 2.2-1.8 4-4 4h-36c-2.2 0-4-1.8-4-4v-34c0-2.2 1.8-4 4-4z" class="st2"/><path id="path4120" d="M608.5 78.2h36c2.2 0 4 1.8 4 4v34c0 2.2-1.8 4-4 4h-36c-2.2 0-4-1.8-4-4v-34c0-2.2 1.8-4 4-4z" class="st2"/><path id="path4122" d="M662.5 78.2h36c2.2 0 4 1.8 4 4v34c0 2.2-1.8 4-4 4h-36c-2.2 0-4-1.8-4-4v-34c0-2.2 1.8-4 4-4z" class="st2"/><path id="path4124" d="M716.5 78.2h90c2.2 0 4 1.8 4 4v34c0 2.2-1.8 4-4 4h-90c-2.2 0-4-1.8-4-4v-34c0-2.2 1.8-4 4-4z" class="st2"/><path id="path4126" d="M838 78.2h36c2.2 0 4 1.8 4 4v34c0 2.2-1.8 4-4 4h-36c-2.2 0-4-1.8-4-4v-34c0-2.2 1.8-4 4-4z" class="st2"/><path id="path4128" d="M892 78.2h36c2.2 0 4 1.8 4 4v34c0 2.2-1.8 4-4 4h-36c-2.2 0-4-1.8-4-4v-34c0-2.2 1.8-4 4-4z" class="st2"/><path id="path4130" d="M946 78.2h36c2.2 0 4 1.8 4 4v34c0 2.2-1.8 4-4 4h-36c-2.2 0-4-1.8-4-4v-34c0-2.2 1.8-4 4-4z" class="st2"/><path id="path4132" d="M1013.5 78.2h36c2.2 0 4 1.8 4 4v34c0 2.2-1.8 4-4 4h-36c-2.2 0-4-1.8-4-4v-34c0-2.2 1.8-4 4-4z" class="st2"/><path id="path4134" d="M1067.5 78.2h36c2.2 0 4 1.8 4 4v34c0 2.2-1.8 4-4 4h-36c-2.2 0-4-1.8-4-4v-34c0-2.2 1.8-4 4-4z" class="st2"/><path id="path4136" d="M1121.5 78.2h36c2.2 0 4 1.8 4 4v34c0 2.2-1.8 4-4 4h-36c-2.2 0-4-1.8-4-4v-34c0-2.2 1.8-4 4-4z" class="st2"/><path id="path4138" d="M1175.5 78.2h36c2.2 0 4 1.8 4 4v34c0 2.2-1.8 4-4 4h-36c-2.2 0-4-1.8-4-4v-34c0-2.2 1.8-4 4-4z" class="st2"/><path id="path4140" d="M14.5 132.2h63c2.2 0 4 1.8 4 4v34c0 2.2-1.8 4-4 4h-63c-2.2 0-4-1.8-4-4v-34c0-2.2 1.8-4 4-4z" class="st2"/><path id="path4142" d="M95.5 132.2h36c2.2 0 4 1.8 4 4v34c0 2.2-1.8 4-4 4h-36c-2.2 0-4-1.8-4-4v-34c0-2.2 1.8-4 4-4z" class="st2"/><path id="path4144" d="M149.5 132.2h36c2.2 0 4 1.8 4 4v34c0 2.2-1.8 4-4 4h-36c-2.2 0-4-1.8-4-4v-34c0-2.2 1.8-4 4-4z" class="st2"/><path id="path4146" d="M203.5 132.2h36c2.2 0 4 1.8 4 4v34c0 2.2-1.8 4-4 4h-36c-2.2 0-4-1.8-4-4v-34c0-2.2 1.8-4 4-4z" class="st2"/><path id="path4148" d="M257.5 132.2h36c2.2 0 4 1.8 4 4v34c0 2.2-1.8 4-4 4h-36c-2.2 0-4-1.8-4-4v-34c0-2.2 1.8-4 4-4z" class="st2"/><path id="path4150" d="M311.5 132.2h36c2.2 0 4 1.8 4 4v34c0 2.2-1.8 4-4 4h-36c-2.2 0-4-1.8-4-4v-34c0-2.2 1.8-4 4-4z" class="st2"/><path id="path4152" d="M365.5 132.2h36c2.2 0 4 1.8 4 4v34c0 2.2-1.8 4-4 4h-36c-2.2 0-4-1.8-4-4v-34c0-2.2 1.8-4 4-4z" class="st2"/><path id="path4154" d="M419.5 132.2h36c2.2 0 4 1.8 4 4v34c0 2.2-1.8 4-4 4h-36c-2.2 0-4-1.8-4-4v-34c0-2.2 1.8-4 4-4z" class="st2"/><path id="path4156" d="M473.5 132.2h36c2.2 0 4 1.8 4 4v34c0 2.2-1.8 4-4 4h-36c-2.2 0-4-1.8-4-4v-34c0-2.2 1.8-4 4-4z" class="st2"/><path id="path4158" d="M527.5 132.2h36c2.2 0 4 1.8 4 4v34c0 2.2-1.8 4-4 4h-36c-2.2 0-4-1.8-4-4v-34c0-2.2 1.8-4 4-4z" class="st2"/><path id="path4160" d="M581.5 132.2h36c2.2 0 4 1.8 4 4v34c0 2.2-1.8 4-4 4h-36c-2.2 0-4-1.8-4-4v-34c0-2.2 1.8-4 4-4z" class="st2"/><path id="path4162" d="M635.5 132.2h36c2.2 0 4 1.8 4 4v34c0 2.2-1.8 4-4 4h-36c-2.2 0-4-1.8-4-4v-34c0-2.2 1.8-4 4-4z" class="st2"/><path id="path4164" d="M689.5 132.2h36c2.2 0 4 1.8 4 4v34c0 2.2-1.8 4-4 4h-36c-2.2 0-4-1.8-4-4v-34c0-2.2 1.8-4 4-4z" class="st2"/><path id="path4166" d="M743.5 132.2h63c2.2 0 4 1.8 4 4v34c0 2.2-1.8 4-4 4h-63c-2.2 0-4-1.8-4-4v-34c0-2.2 1.8-4 4-4z" class="st2"/><path id="path4168" d="M838 132.2h36c2.2 0 4 1.8 4 4v34c0 2.2-1.8 4-4 4h-36c-2.2 0-4-1.8-4-4v-34c0-2.2 1.8-4 4-4z" class="st2"/><path id="path4170" d="M892 132.2h36c2.2 0 4 1.8 4 4v34c0 2.2-1.8 4-4 4h-36c-2.2 0-4-1.8-4-4v-34c0-2.2 1.8-4 4-4z" class="st2"/><path id="path4172" d="M946 132.2h36c2.2 0 4 1.8 4 4v34c0 2.2-1.8 4-4 4h-36c-2.2 0-4-1.8-4-4v-34c0-2.2 1.8-4 4-4z" class="st2"/><path id="path4174" d="M1013.5 132.2h36c2.2 0 4 1.8 4 4v34c0 2.2-1.8 4-4 4h-36c-2.2 0-4-1.8-4-4v-34c0-2.2 1.8-4 4-4z" class="st2"/><path id="path4176" d="M1067.5 132.2h36c2.2 0 4 1.8 4 4v34c0 2.2-1.8 4-4 4h-36c-2.2 0-4-1.8-4-4v-34c0-2.2 1.8-4 4-4z" class="st2"/><path id="path4178" d="M1121.5 132.2h36c2.2 0 4 1.8 4 4v34c0 2.2-1.8 4-4 4h-36c-2.2 0-4-1.8-4-4v-34c0-2.2 1.8-4 4-4z" class="st2"/><path id="path4180" d="M1175.5 132.2h36c2.2 0 4 1.8 4 4v88c0 2.2-1.8 4-4 4h-36c-2.2 0-4-1.8-4-4v-88c0-2.2 1.8-4 4-4z" class="st2"/><path id="path4182" d="M14.5 186.2H91c2.2 0 4 1.8 4 4v34c0 2.2-1.8 4-4 4H14.5c-2.2 0-4-1.8-4-4v-34c0-2.2 1.8-4 4-4z" class="st2"/><path id="path4184" d="M109 186.2h36c2.2 0 4 1.8 4 4v34c0 2.2-1.8 4-4 4h-36c-2.2 0-4-1.8-4-4v-34c0-2.2 1.8-4 4-4z" class="st2"/><path id="path4186" d="M163 186.2h36c2.2 0 4 1.8 4 4v34c0 2.2-1.8 4-4 4h-36c-2.2 0-4-1.8-4-4v-34c0-2.2 1.8-4 4-4z" class="st2"/><path id="path4188" d="M217 186.2h36c2.2 0 4 1.8 4 4v34c0 2.2-1.8 4-4 4h-36c-2.2 0-4-1.8-4-4v-34c0-2.2 1.8-4 4-4z" class="st2"/><path id="path4190" d="M271 186.2h36c2.2 0 4 1.8 4 4v34c0 2.2-1.8 4-4 4h-36c-2.2 0-4-1.8-4-4v-34c0-2.2 1.8-4 4-4z" class="st2"/><path id="path4192" d="M325 186.2h36c2.2 0 4 1.8 4 4v34c0 2.2-1.8 4-4 4h-36c-2.2 0-4-1.8-4-4v-34c0-2.2 1.8-4 4-4z" class="st2"/><path id="path4194" d="M379 186.2h36c2.2 0 4 1.8 4 4v34c0 2.2-1.8 4-4 4h-36c-2.2 0-4-1.8-4-4v-34c0-2.2 1.8-4 4-4z" class="st2"/><path id="path4196" d="M433 186.2h36c2.2 0 4 1.8 4 4v34c0 2.2-1.8 4-4 4h-36c-2.2 0-4-1.8-4-4v-34c0-2.2 1.8-4 4-4z" class="st2"/><path id="path4198" d="M487 186.2h36c2.2 0 4 1.8 4 4v34c0 2.2-1.8 4-4 4h-36c-2.2 0-4-1.8-4-4v-34c0-2.2 1.8-4 4-4z" class="st2"/><path id="path4200" d="M541 186.2h36c2.2 0 4 1.8 4 4v34c0 2.2-1.8 4-4 4h-36c-2.2 0-4-1.8-4-4v-34c0-2.2 1.8-4 4-4z" class="st2"/><path id="path4202" d="M595 186.2h36c2.2 0 4 1.8 4 4v34c0 2.2-1.8 4-4 4h-36c-2.2 0-4-1.8-4-4v-34c0-2.2 1.8-4 4-4z" class="st2"/><path id="path4204" d="M649 186.2h36c2.2 0 4 1.8 4 4v34c0 2.2-1.8 4-4 4h-36c-2.2 0-4-1.8-4-4v-34c0-2.2 1.8-4 4-4z" class="st2"/><path id="path4206" d="M703 186.2h103.5c2.2 0 4 1.8 4 4v34c0 2.2-1.8 4-4 4H703c-2.2 0-4-1.8-4-4v-34c0-2.2 1.8-4 4-4z" class="st2"/><path id="path4208" d="M1013.5 186.2h36c2.2 0 4 1.8 4 4v34c0 2.2-1.8 4-4 4h-36c-2.2 0-4-1.8-4-4v-34c0-2.2 1.8-4 4-4z" class="st2"/><path id="path4210" d="M1067.5 186.2h36c2.2 0 4 1.8 4 4v34c0 2.2-1.8 4-4 4h-36c-2.2 0-4-1.8-4-4v-34c0-2.2 1.8-4 4-4z" class="st2"/><path id="path4212" d="M1121.5 186.2h36c2.2 0 4 1.8 4 4v34c0 2.2-1.8 4-4 4h-36c-2.2 0-4-1.8-4-4v-34c0-2.2 1.8-4 4-4z" class="st2"/><path id="path4214" d="M14.5 240.2H118c2.2 0 4 1.8 4 4v34c0 2.2-1.8 4-4 4H14.5c-2.2 0-4-1.8-4-4v-34c0-2.2 1.8-4 4-4z" class="st2"/><path id="path4216" d="M136 240.2h36c2.2 0 4 1.8 4 4v34c0 2.2-1.8 4-4 4h-36c-2.2 0-4-1.8-4-4v-34c0-2.2 1.8-4 4-4z" class="st2"/><path id="path4218" d="M190 240.2h36c2.2 0 4 1.8 4 4v34c0 2.2-1.8 4-4 4h-36c-2.2 0-4-1.8-4-4v-34c0-2.2 1.8-4 4-4z" class="st2"/><path id="path4220" d="M244 240.2h36c2.2 0 4 1.8 4 4v34c0 2.2-1.8 4-4 4h-36c-2.2 0-4-1.8-4-4v-34c0-2.2 1.8-4 4-4z" class="st2"/><path id="path4222" d="M298 240.2h36c2.2 0 4 1.8 4 4v34c0 2.2-1.8 4-4 4h-36c-2.2 0-4-1.8-4-4v-34c0-2.2 1.8-4 4-4z" class="st2"/><path id="path4224" d="M352 240.2h36c2.2 0 4 1.8 4 4v34c0 2.2-1.8 4-4 4h-36c-2.2 0-4-1.8-4-4v-34c0-2.2 1.8-4 4-4z" class="st2"/><path id="path4226" d="M406 240.2h36c2.2 0 4 1.8 4 4v34c0 2.2-1.8 4-4 4h-36c-2.2 0-4-1.8-4-4v-34c0-2.2 1.8-4 4-4z" class="st2"/><path id="path4228" d="M460 240.2h36c2.2 0 4 1.8 4 4v34c0 2.2-1.8 4-4 4h-36c-2.2 0-4-1.8-4-4v-34c0-2.2 1.8-4 4-4z" class="st2"/><path id="path4230" d="M514 240.2h36c2.2 0 4 1.8 4 4v34c0 2.2-1.8 4-4 4h-36c-2.2 0-4-1.8-4-4v-34c0-2.2 1.8-4 4-4z" class="st2"/><path id="path4232" d="M568 240.2h36c2.2 0 4 1.8 4 4v34c0 2.2-1.8 4-4 4h-36c-2.2 0-4-1.8-4-4v-34c0-2.2 1.8-4 4-4z" class="st2"/><path id="path4234" d="M622 240.2h36c2.2 0 4 1.8 4 4v34c0 2.2-1.8 4-4 4h-36c-2.2 0-4-1.8-4-4v-34c0-2.2 1.8-4 4-4z" class="st2"/><path id="path4236" d="M676 240.2h130.5c2.2 0 4 1.8 4 4v34c0 2.2-1.8 4-4 4H676c-2.2 0-4-1.8-4-4v-34c0-2.2 1.8-4 4-4z" class="st2"/><path id="path4238" d="M892 240.2h36c2.2 0 4 1.8 4 4v34c0 2.2-1.8 4-4 4h-36c-2.2 0-4-1.8-4-4v-34c0-2.2 1.8-4 4-4z" class="st2"/><path id="path4240" d="M1013.5 240.2h36c2.2 0 4 1.8 4 4v34c0 2.2-1.8 4-4 4h-36c-2.2 0-4-1.8-4-4v-34c0-2.2 1.8-4 4-4z" class="st2"/><path id="path4242" d="M1067.5 240.2h36c2.2 0 4 1.8 4 4v34c0 2.2-1.8 4-4 4h-36c-2.2 0-4-1.8-4-4v-34c0-2.2 1.8-4 4-4z" class="st2"/><path id="path4244" d="M1121.5 240.2h36c2.2 0 4 1.8 4 4v34c0 2.2-1.8 4-4 4h-36c-2.2 0-4-1.8-4-4v-34c0-2.2 1.8-4 4-4z" class="st2"/><path id="path4246" d="M1175.5 240.2h36c2.2 0 4 1.8 4 4v88c0 2.2-1.8 4-4 4h-36c-2.2 0-4-1.8-4-4v-88c0-2.2 1.8-4 4-4z" class="st2"/><path id="path4248" d="M14.5 294.2H64c2.2 0 4 1.8 4 4v34c0 2.2-1.8 4-4 4H14.5c-2.2 0-4-1.8-4-4v-34c0-2.2 1.8-4 4-4z" class="st2"/><path id="path4250" d="M82 294.2h49.5c2.2 0 4 1.8 4 4v34c0 2.2-1.8 4-4 4H82c-2.2 0-4-1.8-4-4v-34c0-2.2 1.8-4 4-4z" class="st2"/><path id="path4252" d="M149.5 294.2H199c2.2 0 4 1.8 4 4v34c0 2.2-1.8 4-4 4h-49.5c-2.2 0-4-1.8-4-4v-34c0-2.2 1.8-4 4-4z" class="st2"/><path id="path4254" d="M217 294.2h319.5c2.2 0 4 1.8 4 4v34c0 2.2-1.8 4-4 4H217c-2.2 0-4-1.8-4-4v-34c0-2.2 1.8-4 4-4z" class="st2"/><path id="path4256" d="M554.5 294.2H604c2.2 0 4 1.8 4 4v34c0 2.2-1.8 4-4 4h-49.5c-2.2 0-4-1.8-4-4v-34c0-2.2 1.8-4 4-4z" class="st2"/><path id="path4258" d="M622 294.2h49.5c2.2 0 4 1.8 4 4v34c0 2.2-1.8 4-4 4H622c-2.2 0-4-1.8-4-4v-34c0-2.2 1.8-4 4-4z" class="st2"/><path id="path4260" d="M689.5 294.2H739c2.2 0 4 1.8 4 4v34c0 2.2-1.8 4-4 4h-49.5c-2.2 0-4-1.8-4-4v-34c0-2.2 1.8-4 4-4z" class="st2"/><path id="path4262" d="M757 294.2h49.5c2.2 0 4 1.8 4 4v34c0 2.2-1.8 4-4 4H757c-2.2 0-4-1.8-4-4v-34c0-2.2 1.8-4 4-4z" class="st2"/><path id="path4264" d="M838 294.2h36c2.2 0 4 1.8 4 4v34c0 2.2-1.8 4-4 4h-36c-2.2 0-4-1.8-4-4v-34c0-2.2 1.8-4 4-4z" class="st2"/><path id="path4266" d="M892 294.2h36c2.2 0 4 1.8 4 4v34c0 2.2-1.8 4-4 4h-36c-2.2 0-4-1.8-4-4v-34c0-2.2 1.8-4 4-4z" class="st2"/><path id="path4268" d="M946 294.2h36c2.2 0 4 1.8 4 4v34c0 2.2-1.8 4-4 4h-36c-2.2 0-4-1.8-4-4v-34c0-2.2 1.8-4 4-4z" class="st2"/><path id="path4270" d="M1013.5 294.2h90c2.2 0 4 1.8 4 4v34c0 2.2-1.8 4-4 4h-90c-2.2 0-4-1.8-4-4v-34c0-2.2 1.8-4 4-4z" class="st2"/><path id="path4272" d="M1121.5 294.2h36c2.2 0 4 1.8 4 4v34c0 2.2-1.8 4-4 4h-36c-2.2 0-4-1.8-4-4v-34c0-2.2 1.8-4 4-4z" class="st2"/></g><g id="Layer_4"><g id="g4279"><path id="path4275" d="M141.4 29.3h-3.9v2.1h2.3v1.2h-2.3V36h-1.2v-7.9h5.1v1.2z"/><path id="path4277" d="M144.7 36h-1.2v-6.1h-1.4v-.8c.8-.1 1.5-.3 1.6-1h1V36z"/></g><g id="g4285"><path id="path4281" d="M193.8 29.3h-3.9v2.1h2.3v1.2h-2.3V36h-1.2v-7.9h5.1v1.2z"/><path id="path4283" d="M200.4 36h-5.7c.1-2.3 1.5-3.4 3-4.3 1.1-.6 1.3-1 1.3-1.5 0-.6-.4-1-1.5-1-.7 0-1.4.3-1.9.8l-.6-1c.7-.7 1.7-1.1 2.7-1.1 1.6 0 2.7.7 2.7 2.2 0 1.2-.6 1.7-2 2.6-1.5.9-1.9 1.4-2.1 2.2h4.2V36z"/></g><g id="g4291"><path id="path4287" d="M247.9 29.3H244v2.1h2.3v1.2H244V36h-1.2v-7.9h5.1v1.2z"/><path id="path4289" d="M254.5 33.7c0 1.6-1.1 2.5-3 2.5-1.1 0-2.3-.5-2.9-1.3l.9-.8c.5.6 1.2.9 2 .9 1.3 0 1.7-.5 1.7-1.3s-.6-1.2-1.4-1.2h-.7v-1.2h.7c.7 0 1.1-.5 1.1-1.1 0-.5-.3-1.1-1.5-1.1-.6 0-1.1.3-1.6.7l-.8-.8c.7-.7 1.5-1.1 2.5-1.1 1.5 0 2.7.8 2.7 2.2 0 1-.4 1.4-1 1.7.7.3 1.3.9 1.3 1.9z"/></g><g id="g4297"><path id="path4293" d="M301.6 29.3h-3.9v2.1h2.3v1.2h-2.3V36h-1.2v-7.9h5.1v1.2z"/><path id="path4295" d="M309 34.2h-1.1V36h-1.2v-1.7h-4.3v-1.1l4.1-5.1h1.4v5.1h1.1v1zm-2.2-4.8c-.1.2-.5.6-.7.9l-1.5 1.9c-.2.3-.6.7-.7.9h3v-2.3c-.1-.4-.1-1.1-.1-1.4z"/></g><g id="g4303"><path id="path4299" d="M382.7 29.3h-3.9v2.1h2.3v1.2h-2.3V36h-1.2v-7.9h5.1v1.2z"/><path id="path4301" d="M389.7 33.3c0 1.9-1.3 2.8-3.1 2.8-1 0-1.9-.2-2.8-.8l.6-1c.7.4 1.5.6 2.2.6 1.2 0 1.9-.6 1.9-1.6 0-.9-.6-1.4-1.6-1.4-.7 0-1.1.2-1.5.5l-1.3-.5.3-3.9h4.9v1.1h-3.8l-.2 2c.4-.2 1-.4 1.7-.4 1.8.1 2.7 1.2 2.7 2.6z"/></g><g id="g4309"><path id="path4305" d="M436.7 29.3h-3.9v2.1h2.3v1.2h-2.3V36h-1.2v-7.9h5.1v1.2z"/><path id="path4307" d="M443.9 33.5c0 1.7-1.4 2.6-3.1 2.6-1.7 0-3-.9-3-3.2 0-2.1 1.2-4.9 4.9-5V29c-1.8.1-3.1.9-3.6 2.6.6-.4 1.1-.6 2.1-.6 1.5 0 2.7.8 2.7 2.5zm-1.2 0c0-1-.7-1.4-1.8-1.4-1.2 0-1.9.5-1.9 1.4 0 .8.6 1.5 1.8 1.5 1.2 0 1.9-.6 1.9-1.5z"/></g><g id="g4315"><path id="path4311" d="M491 29.3h-3.9v2.1h2.3v1.2h-2.3V36h-1.2v-7.9h5.1v1.2z"/><path id="path4313" d="M497.2 29.3c-1.3 1.5-2.6 3.8-2.6 6.7h-1.2c0-2.7 1-4.9 2.5-6.8h-4.2V28h5.5v1.3z"/></g><g id="g4321"><path id="path4317" d="M544.5 29.3h-3.9v2.1h2.3v1.2h-2.3V36h-1.2v-7.9h5.1v1.2z"/><path id="path4319" d="M551.9 33.7c0 1.6-1.2 2.4-3.1 2.4s-3.1-.9-3.1-2.4c0-1 .5-1.6 1.4-2-.8-.3-1.1-1.1-1.1-1.5 0-1.5 1.2-2.2 2.8-2.2 1.4 0 2.8.7 2.8 2.2 0 .5-.2 1.2-1.1 1.6.9.3 1.4.9 1.4 1.9zm-1.2 0c0-.8-.6-1.4-1.9-1.4-1.3 0-1.9.5-1.9 1.3s.7 1.4 1.9 1.4c1.3.1 1.9-.5 1.9-1.3zm-.3-3.5c0-.6-.4-1.2-1.6-1.2s-1.6.5-1.6 1.1c0 .6.6 1.1 1.6 1.1 1 .1 1.6-.4 1.6-1z"/></g><g id="g4327"><path id="path4323" d="M625.7 29.3h-3.9v2.1h2.3v1.2h-2.3V36h-1.2v-7.9h5.1v1.2z"/><path id="path4325" d="M632.8 31.1c0 2.1-1.2 4.9-4.9 5V35c1.8-.1 3.1-.9 3.6-2.6-.6.4-1.1.6-2.1.6-1.4 0-2.7-.8-2.7-2.5s1.4-2.6 3.1-2.6c1.7.1 3 1 3 3.2zm-1.2-.5c0-.8-.6-1.5-1.8-1.5-1.2 0-1.9.6-1.9 1.5 0 1 .7 1.4 1.8 1.4 1.2 0 1.9-.5 1.9-1.4z"/></g><g id="g4335"><path id="path4329" d="M677.7 29.3h-3.9v2.1h2.3v1.2h-2.3V36h-1.2v-7.9h5.1v1.2z"/><path id="path4331" d="M680.9 36h-1.2v-6.1h-1.4v-.8c.8-.1 1.5-.3 1.6-1h1V36z"/><path id="path4333" d="M688.9 32c0 2.4-1.1 4.1-3.1 4.1s-3.1-1.7-3.1-4.1c0-2.4 1.1-4.1 3.1-4.1 2 .1 3.1 1.7 3.1 4.1zm-1.2.1c0-1.7-.5-2.9-1.9-2.9s-1.9 1.3-1.9 2.9.6 2.9 1.9 2.9c1.3 0 1.9-1.3 1.9-2.9z"/></g><g id="g4343"><path id="path4337" d="M733.5 29.3h-3.9v2.1h2.3v1.2h-2.3V36h-1.2v-7.9h5.1v1.2z"/><path id="path4339" d="M736.7 36h-1.2v-6.1h-1.4v-.8c.8-.1 1.5-.3 1.6-1h1V36z"/><path id="path4341" d="M740.6 36h-1.2v-6.1H738v-.8c.8-.1 1.5-.3 1.6-1h1V36z"/></g><g id="g4351"><path id="path4345" d="M785.8 29.3h-3.9v2.1h2.3v1.2h-2.3V36h-1.2v-7.9h5.1v1.2z"/><path id="path4347" d="M789.1 36h-1.2v-6.1h-1.4v-.8c.8-.1 1.5-.3 1.6-1h1V36z"/><path id="path4349" d="M796.4 36h-5.7c.1-2.3 1.5-3.4 3-4.3 1.1-.6 1.3-1 1.3-1.5 0-.6-.4-1-1.5-1-.7 0-1.4.3-1.9.8l-.8-.9c.7-.7 1.7-1.1 2.7-1.1 1.6 0 2.7.7 2.7 2.2 0 1.2-.6 1.7-2 2.6-1.5.9-2 1.4-2.1 2.2h4.2v1z"/></g><g id="g4357"><path id="path4353" d="M35.9 89.7c-.5 1.3-1.1 2-2.2 2-.6 0-.9-.2-1.4-.5-.6-.4-.9-.6-1.2-.6-.5 0-.7.3-1 1.1l-1-.5c.5-1.3 1.1-2 2.2-2 .6 0 .9.2 1.4.5.5.4.9.6 1.2.6.5 0 .7-.3 1.1-1.1l.9.5z"/><path id="path4355" d="M33.9 104.2h-1.2l-2.3-2.3h2l1.5 2.3z"/></g><g id="g4363"><path id="path4359" d="M87.6 94.8c0 .6-.5 1.1-1.1 1.1-.6 0-1.1-.5-1.1-1.1s.5-1.1 1.1-1.1c.6 0 1.1.5 1.1 1.1zm-.3-4.6-.3 2.6h-1l-.3-2.7v-4.4h1.5v4.5z"/><path id="path4361" d="M87.6 112.7h-1.5v-7.6h-1.8v-1c1-.1 1.9-.4 2-1.3h1.2v9.9z"/></g><g id="g4369"><path id="path4365" d="M145.6 89.1c0 2.1-.9 2.9-2.2 2.9-.7 0-1.3-.4-1.5-.9-.3.5-1.1.9-1.8.9-1.1 0-2.2-.6-2.2-1.9 0-1.2 1.1-1.8 2.3-1.8.6 0 1.1.2 1.4.4V88c0-.6-.5-.8-1.3-.8-.5 0-1 .1-1.4.3l-.4-.7c.5-.3 1.2-.5 1.8-.5 1.3 0 2.2.6 2.2 1.7v2.4c0 .5.3.9.9.9.9 0 1.2-.7 1.2-2.1 0-2.3-1.8-4.2-4.3-4.2s-4.3 1.8-4.3 4.3 1.8 4.3 4.3 4.3c.6 0 1.2-.1 1.8-.4l.3.8c-.8.4-1.4.5-2.2.5-3 0-5.1-2.2-5.1-5.1 0-3 2.2-5.1 5.1-5.1 3.3-.1 5.4 2.2 5.4 4.8zm-3.9 1.3v-.9c-.3-.2-.8-.4-1.5-.4-.8 0-1.3.3-1.3 1s.5 1.1 1.4 1.1c.5 0 1.1-.3 1.4-.8z"/><path id="path4367" d="M143.8 111.3h-7.1c.1-2.9 1.9-4.2 3.8-5.4 1.3-.8 1.7-1.2 1.7-1.9 0-.8-.5-1.3-1.9-1.3-.8 0-1.8.4-2.4 1l-.9-1.1c.9-.8 2.2-1.3 3.4-1.3 2.1 0 3.4.9 3.4 2.7 0 1.5-.8 2.2-2.5 3.2-1.9 1.1-2.4 1.8-2.7 2.7h5.3v1.4z"/></g><g id="g4375"><path id="path4371" d="M198.8 93.4h-1.7v2.3h-1.4v-2.3h-2.3v2.3H192v-2.3h-1.7v-1.3h1.7v-2.7h-1.7V88h1.7v-2.3h1.4V88h2.3v-2.3h1.4V88h1.7v1.3h-1.7V92h1.7v1.4zm-3.1-1.3v-2.7h-2.3v2.7h2.3z"/><path id="path4373" d="M197.8 109.7c0 2-1.4 3.1-3.7 3.1-1.4 0-2.9-.6-3.6-1.6l1.1-1c.6.8 1.5 1.1 2.4 1.1 1.6 0 2.2-.6 2.2-1.6s-.8-1.5-1.8-1.5h-.9v-1.4h.9c.9 0 1.4-.6 1.4-1.4 0-.6-.4-1.4-1.9-1.4-.8 0-1.4.3-2 .9l-1.1-1c.8-.9 1.8-1.3 3.1-1.3 1.9 0 3.4 1 3.4 2.7 0 1.2-.5 1.8-1.2 2.2 1.1.2 1.7 1 1.7 2.2z"/></g><g id="g4381"><path id="path4377" d="M252 92.7c0 1.6-.9 2.7-2.8 2.9V97h-1.5v-1.4c-1.2-.2-2.3-.7-2.9-1.6l1.1-1c.7.8 1.6 1.1 2.5 1.1 1.4 0 2-.5 2-1.3s-.6-1.1-2.2-1.6c-2.1-.6-3.1-1.1-3.1-2.9 0-1.5 1.1-2.4 2.5-2.6v-1.5h1.5v1.5c1 .2 1.8.6 2.5 1.3l-1 1c-.7-.6-1.3-1-2.3-1-1.1 0-1.6.5-1.6 1.1 0 .7.4 1 2.1 1.5 2 .8 3.2 1.3 3.2 3.1z"/><path id="path4379" d="M252.5 110.5h-1.3v2.2h-1.4v-2.2h-5.4v-1.4l5.1-6.3h1.7v6.4h1.3v1.3zm-2.7-6.1c-.2.3-.6.8-.9 1.2L247 108c-.3.4-.7.9-.9 1.1h3.7v-2.9c-.1-.5 0-1.4 0-1.8z"/></g><g id="g4387"><path id="path4383" d="M301.2 88.7c0 1.8-1 3.1-2.5 3.1s-2.4-1.3-2.4-3.1 1-3.1 2.5-3.1c1.4 0 2.4 1.3 2.4 3.1zm-1.3 0c0-1.1-.4-1.9-1.2-1.9s-1.2.7-1.2 1.8.4 1.9 1.2 1.9 1.2-.8 1.2-1.8zm6.4-3-6.1 9.9h-1.4l6.1-9.9h1.4zm2.4 7c0 1.8-1 3.1-2.5 3.1-1.4 0-2.4-1.3-2.4-3.1s1-3.1 2.5-3.1c1.5.1 2.4 1.3 2.4 3.1zm-1.2.1c0-1.1-.4-1.9-1.2-1.9-.8 0-1.2.7-1.2 1.8s.4 1.9 1.2 1.9c.7 0 1.2-.8 1.2-1.8z"/><path id="path4385" d="M306.1 109.3c0 2.4-1.6 3.5-3.9 3.5-1.3 0-2.4-.3-3.5-1l.7-1.2c.8.5 1.9.8 2.8.8 1.5 0 2.4-.8 2.4-2s-.8-1.8-2-1.8c-.8 0-1.4.2-1.9.6l-1.6-.6.3-4.8h6.1v1.4h-4.8l-.2 2.5c.6-.3 1.2-.5 2.1-.5 2.4 0 3.5 1.3 3.5 3.1z"/></g><g id="g4393"><path id="path4389" d="M359.9 90.3h-1.6l-1.8-3-1.8 3h-1.6l2.9-4.5h1.1l2.8 4.5z"/><path id="path4391" d="M360.4 109.5c0 2.2-1.7 3.3-3.9 3.3-2.1 0-3.7-1.1-3.7-4 0-2.6 1.4-6.1 6.2-6.3v1.4c-2.3.1-3.8 1.1-4.5 3.2.7-.6 1.4-.8 2.6-.8 1.8.1 3.3 1.1 3.3 3.2zm-1.5.1c0-1.2-.8-1.7-2.3-1.7-1.4 0-2.3.6-2.3 1.7 0 1 .8 1.8 2.3 1.8 1.5 0 2.3-.7 2.3-1.8z"/></g><g id="g4399"><path id="path4395" d="M414.9 95.7h-1.7l-.8-.9c-.7.7-1.7 1.1-2.8 1.1-2.1 0-3.1-1.1-3.1-2.7 0-1.3.7-2.2 2.1-2.9l-.2-.2c-.7-.8-.9-1.4-.9-2.1 0-1.4 1.1-2.3 2.8-2.3.9 0 1.8.3 2.7.9l-.7 1.2c-.8-.6-1.3-.8-2.1-.8s-1.1.3-1.1.9c0 .4.1.7.5 1.2l2.9 3.6c.3-.5.5-1.1.7-1.6l1.3.4c-.2.8-.6 1.7-1.1 2.4l1.5 1.8zm-3.4-2-2.1-2.5c-.9.5-1.4 1-1.4 1.9 0 .8.5 1.4 1.7 1.4.7 0 1.3-.3 1.8-.8z"/><path id="path4397" d="M413.6 104.3c-1.7 1.9-3.2 4.7-3.3 8.4h-1.5c.1-3.4 1.2-6.1 3.1-8.5h-5.2v-1.4h6.9v1.5z"/></g><g id="g4405"><path id="path4401" d="m467.3 89.5-.6 1.1-1.8-1.3.2 2.2h-1.2l.2-2.2-1.8 1.3-.6-1.1 2-.9-2-.9.6-1.1 1.8 1.3-.2-2.2h1.2l-.2 2.1 1.7-1.3.6 1.1-2 .9 2.1 1z"/><path id="path4403" d="M468.4 109.8c0 2-1.5 3-3.9 3s-3.9-1.1-3.9-3c0-1.2.6-2 1.8-2.5-1-.4-1.3-1.3-1.3-1.9 0-1.9 1.5-2.8 3.5-2.8 1.8 0 3.5.9 3.5 2.8 0 .6-.3 1.5-1.3 1.9.9.4 1.6 1.2 1.6 2.5zm-1.5 0c0-1-.8-1.7-2.4-1.7-1.6 0-2.4.6-2.4 1.6s.9 1.7 2.4 1.7c1.6.1 2.4-.6 2.4-1.6zm-.4-4.4c0-.8-.5-1.5-2-1.5-1.4 0-2 .7-2 1.4 0 .8.8 1.4 2 1.4 1.3 0 2-.6 2-1.3z"/></g><g id="g4411"><path id="path4407" d="m520.3 96.6-.7.6c-1.4-1.3-2.8-3.2-2.8-5.8 0-2.7 1.3-4.5 2.8-5.9l.7.6c-1.3 1.4-2 3-2 5.2.1 2.4.8 3.9 2 5.3z"/><path id="path4409" d="M522.2 106.6c0 2.6-1.4 6.1-6.2 6.3v-1.4c2.3-.1 3.8-1.1 4.5-3.2-.7.6-1.4.8-2.6.8-1.8 0-3.3-1-3.3-3.1 0-2.2 1.7-3.3 3.9-3.3 2.1-.1 3.7 1 3.7 3.9zm-1.5-.7c0-1-.8-1.8-2.3-1.8-1.5 0-2.3.7-2.3 1.8 0 1.2.8 1.7 2.3 1.7 1.4 0 2.3-.6 2.3-1.7z"/></g><g id="g4417"><path id="path4413" d="M574.2 91.3c0 2.7-1.3 4.5-2.8 5.9l-.7-.6c1.3-1.4 2-3 2-5.2 0-2.3-.8-3.9-2-5.2l.7-.6c1.4 1.3 2.8 3.2 2.8 5.7z"/><path id="path4415" d="M576.4 107.7c0 3-1.4 5.1-3.9 5.1-2.6 0-3.9-2.1-3.9-5.1s1.4-5.1 3.9-5.1c2.6 0 3.9 2.1 3.9 5.1zm-1.5 0c0-2.1-.7-3.7-2.4-3.7s-2.4 1.6-2.4 3.7.7 3.7 2.4 3.7c1.8 0 2.4-1.6 2.4-3.7z"/></g><g id="g4423"><path id="path4419" d="M630 98.2h-7v-1.3h7.1v1.3z"/><path id="path4421" d="M628.3 108.2h-3.5v-1.4h3.5v1.4z"/></g><g id="g4429"><path id="path4425" d="M683.9 91.5h-2.7v2.8h-1.5v-2.8H677v-1.4h2.7v-2.8h1.5v2.8h2.7v1.4z"/><path id="path4427" d="M683.6 106.9h-6.1v-1.4h6.1v1.4zm0 3.2h-6.1v-1.4h6.1v1.4z"/></g><g id="g4433"><path id="path4431" d="m1088.4 93-4.4 12.5h-1.5L1087 93h1.4z"/></g><g id="g4437"><path id="path4435" d="m1136.4 98.2.7-1.2 1.9 1.4-.2-2.4h1.4l-.2 2.4 1.9-1.4.7 1.2-2.2 1 2.2 1-.7 1.2-1.9-1.4.2 2.4h-1.4l.2-2.4-1.9 1.4-.7-1.2 2.2-1-2.2-1z"/></g><g id="g4441"><path id="path4439" d="M1189.9 98.4h7.2v1.6h-7.2v-1.6z"/></g><g id="g4445"><path id="path4443" d="M117.7 153.2c0 1.7-.6 3.2-1.5 4.1l.7 1-1.2.8-.7-1c-.4.2-.9.3-1.5.3-2.6 0-4.2-2.1-4.2-5.1s1.6-5.1 4.2-5.1c2.6-.1 4.2 2 4.2 5zm-1.5 0c0-2.2-.9-3.6-2.7-3.6-1.7 0-2.7 1.4-2.7 3.6s.9 3.7 2.7 3.7c.3 0 .5 0 .7-.1l-.7-1.1 1.2-.8.7 1.1c.5-.6.8-1.6.8-2.8z"/></g><g id="g4449"><path id="path4447" d="m172.9 148.2-2 9.9h-1.5l-1.5-6.4c-.1-.3-.2-1.1-.3-1.3 0 .2-.2 1-.3 1.3l-1.6 6.4h-1.5l-2-9.9h1.5l1.2 6.3c.1.3.2 1 .2 1.3.1-.3.2-1 .3-1.3l1.6-6.3h1.3l1.6 6.4c.1.3.2.8.2 1.1.1-.4.2-.9.2-1.2l1.2-6.4h1.4z"/></g><g id="g4453"><path id="path4451" d="M225 158.2h-6.6v-9.9h6.4v1.4h-4.9v2.5h2.8v1.4h-2.8v3.1h5.1v1.5z"/></g><g id="g4457"><path id="path4455" d="M279.4 151.2c0 1.6-.8 2.6-2.2 2.9l2 4.1h-1.7l-2-3.9h-2.2v3.9h-1.5v-9.9h4.4c1.8-.1 3.2.9 3.2 2.9zm-1.5.1c0-1-.7-1.6-1.7-1.6h-2.9v3.2h2.9c1-.1 1.7-.6 1.7-1.6z"/></g><g id="g4461"><path id="path4459" d="M333.1 149.7h-2.9v8.5h-1.5v-8.5h-2.9v-1.5h7.3v1.5z"/></g><g id="g4465"><path id="path4463" d="m387.8 148.2-3.6 6v3.9h-1.5v-3.9l-3.6-6h1.7l1.5 2.7c.3.6.9 1.6 1 2 .2-.4.7-1.3 1-2l1.6-2.8h1.9z"/></g><g id="g4469"><path id="path4467" d="M441.3 154c0 2.8-1.3 4.3-3.8 4.3s-3.7-1.6-3.7-4.3v-5.8h1.5v5.7c0 1.9.8 2.9 2.3 2.9 1.6 0 2.3-1 2.3-2.8v-5.8h1.5v5.8z"/></g><g id="g4473"><path id="path4471" d="M492.2 158.2h-1.5v-9.9h1.5v9.9z"/></g><g id="g4477"><path id="path4475" d="M549.7 153.2c0 3.1-1.7 5.1-4.3 5.1-2.5 0-4.2-2-4.2-5.1s1.7-5.1 4.2-5.1c2.6 0 4.3 2 4.3 5.1zm-1.5 0c0-2.3-1.2-3.7-2.8-3.7-1.6 0-2.7 1.4-2.7 3.6s1.1 3.7 2.7 3.7c1.7.1 2.8-1.3 2.8-3.6z"/></g><g id="g4481"><path id="path4479" d="M603.5 151.4c0 2-1.4 3.1-3.3 3.1h-2.6v3.7h-1.5v-9.9h4.2c1.8-.1 3.2 1 3.2 3.1zm-1.5 0c0-1.1-.7-1.7-1.7-1.7h-2.7v3.4h2.7c1.1 0 1.7-.7 1.7-1.7z"/></g><g id="g4487"><path id="path4483" d="M655.8 151.2c-2.3 0-3.3-1-3.3-3v-.9c0-1-.2-1.2-.8-1.2h-.3v-1.3h.3c.6 0 .8-.3.8-1.2v-.9c0-2 1-3 3.3-3v1.1c-1.4.1-1.8.7-1.8 1.8v.7c0 1.3-.3 1.9-1.1 2.2.8.3 1.1.9 1.1 2.2v.7c0 1.1.4 1.7 1.8 1.8v1z"/><path id="path4485" d="M655.3 168.2h-3.1v-11.5h3.1v1.2h-1.7v9.1h1.7v1.2z"/></g><g id="g4493"><path id="path4489" d="M709.6 146.1h-.3c-.6 0-.8.3-.8 1.2v.9c0 2-1 3-3.3 3v-1.1c1.4-.1 1.8-.7 1.8-1.8v-.7c0-1.3.3-1.9 1.1-2.2-.8-.3-1.1-.9-1.1-2.2v-.7c0-1.1-.4-1.7-1.8-1.8v-1.1c2.3 0 3.3 1 3.3 3v.9c0 1 .2 1.2.8 1.2h.3v1.4z"/><path id="path4491" d="M708.8 168.2h-3.1V167h1.7v-9h-1.7v-1.2h3.1v11.4z"/></g><g id="g4499"><path id="path4495" d="M775.7 152.3h-1.3v-14h1.3v14z"/><path id="path4497" d="M777.9 168h-1.5l-4.4-12.5h1.5l4.4 12.5z"/></g><g id="g4503"><path id="path4501" d="M1034.6 149.8c-1.7 1.9-3.2 4.7-3.3 8.4h-1.5c.1-3.4 1.2-6.1 3.1-8.5h-5.2v-1.4h6.9v1.5z"/></g><g id="g4507"><path id="path4505" d="M1089.4 155.3c0 2-1.5 3-3.9 3s-3.9-1.1-3.9-3c0-1.2.6-2 1.8-2.5-1-.4-1.3-1.3-1.3-1.9 0-1.9 1.5-2.8 3.5-2.8 1.8 0 3.5.9 3.5 2.8 0 .6-.3 1.5-1.3 1.9.9.4 1.6 1.2 1.6 2.5zm-1.5 0c0-1-.8-1.7-2.4-1.7-1.6 0-2.4.6-2.4 1.6s.9 1.7 2.4 1.7c1.6.1 2.4-.6 2.4-1.6zm-.4-4.4c0-.8-.5-1.5-2-1.5-1.4 0-2 .7-2 1.4 0 .8.8 1.4 2 1.4 1.3 0 2-.6 2-1.3z"/></g><g id="g4511"><path id="path4509" d="M1143.2 152c0 2.6-1.4 6.1-6.2 6.3v-1.4c2.3-.1 3.8-1.1 4.5-3.2-.7.6-1.4.8-2.6.8-1.8 0-3.3-1-3.3-3.1 0-2.2 1.7-3.3 3.9-3.3 2.1 0 3.7 1.1 3.7 3.9zm-1.5-.6c0-1-.8-1.8-2.3-1.8-1.5 0-2.3.7-2.3 1.8 0 1.2.8 1.7 2.3 1.7 1.4 0 2.3-.6 2.3-1.7z"/></g><g id="g4515"><path id="path4513" d="M1197.3 182h-3v3h-1.6v-3h-3v-1.6h3v-3h1.6v3h3v1.6z"/></g><g id="g4519"><path id="path4517" d="M131.4 212.2h-1.6l-.8-2.4h-4l-.8 2.4h-1.5l3.6-9.9h1.6l3.5 9.9zm-2.9-3.7-.8-2.3c-.2-.7-.6-1.9-.8-2.3-.1.4-.5 1.6-.7 2.3l-.8 2.3h3.1z"/></g><g id="g4523"><path id="path4521" d="M184.5 209.3c0 1.8-1.1 3-3.7 3-1.4 0-2.7-.6-3.5-1.6l1.1-1c.7.7 1.6 1.2 2.6 1.2 1.4 0 2.1-.5 2.1-1.4 0-.8-.6-1.1-2.2-1.6-2.1-.6-3.1-1.1-3.1-2.9 0-1.7 1.4-2.8 3.3-2.8 1.3 0 2.4.5 3.2 1.3l-1 1.1c-.6-.6-1.3-.9-2.3-.9-1.2 0-1.7.6-1.7 1.2 0 .7.5 1 2.2 1.5 1.8.5 3 1.2 3 2.9z"/></g><g id="g4527"><path id="path4525" d="M239 207.2c0 3.5-2.2 5-4.8 5h-2.7v-9.9h2.7c2.7-.1 4.8 1.4 4.8 4.9zm-1.5 0c0-2.1-1-3.5-3.3-3.5H233v7h1.2c2.3 0 3.3-1.4 3.3-3.5z"/></g><g id="g4531"><path id="path4529" d="M292.6 203.7h-4.9v2.6h2.8v1.5h-2.8v4.4h-1.5v-9.9h6.4v1.4z"/></g><g id="g4535"><path id="path4533" d="M347 208.3c0 2.6-1.6 4-3.8 4-2.6 0-4.2-2.1-4.2-5.1 0-3 1.6-5.1 4.2-5.1 1.6 0 2.7.7 3.4 1.9l-1.3.8c-.5-.8-1-1.2-2.1-1.2-1.7 0-2.7 1.4-2.7 3.6s.9 3.6 2.7 3.6c1.6 0 2.3-1.1 2.3-2.2h-1.6v-1.4h3.1v1.1z"/></g><g id="g4539"><path id="path4537" d="M400.8 212.2h-1.5v-4.4h-4.6v4.4h-1.5v-9.9h1.5v4h4.6v-4h1.5v9.9z"/></g><g id="g4543"><path id="path4541" d="M454.1 208.3c0 2.7-1.1 4.1-3.5 4.1-1.9 0-3-1-3.5-2.6l1.4-.4c.4 1 1 1.6 2.1 1.6 1.4 0 2-.8 2-2.7v-5.9h1.5v5.9z"/></g><g id="g4547"><path id="path4545" d="M509.3 212.2h-1.7l-2.8-5.1-1.8 2.2v2.9h-1.4v-9.9h1.4v5.2c.2-.3.8-1.1 1.1-1.5l2.9-3.7h1.7l-2.9 3.6 3.5 6.3z"/></g><g id="g4551"><path id="path4549" d="M562.5 212.2h-6.4v-9.9h1.5v8.5h4.9v1.4z"/></g><g id="g4557"><path id="path4553" d="M614.1 197.2c0 .6-.5 1.1-1.1 1.1-.6 0-1.1-.5-1.1-1.1s.5-1.1 1.1-1.1c.6 0 1.1.5 1.1 1.1zm0 5.5c0 .6-.5 1.1-1.1 1.1-.6 0-1.1-.5-1.1-1.1s.5-1.1 1.1-1.1c.6 0 1.1.5 1.1 1.1z"/><path id="path4555" d="M614.1 214.2c0 .6-.5 1.1-1.1 1.1-.6 0-1.1-.5-1.1-1.1s.5-1.1 1.1-1.1c.6 0 1.1.5 1.1 1.1zm-.1 4.5-1.1 3.8h-1l.2-3.8h1.9z"/></g><g id="g4563"><path id="path4559" d="m666.3 193.7-.2 3.6h-1.9l1.1-3.6h1zm3.3 0-.2 3.6h-1.9l1.1-3.6h1z"/><path id="path4561" d="m668 210.8-.2 3.6h-1.9l1.1-3.6h1z"/></g><g id="g4567"><path id="path4565" d="M1035.5 209.9h-1.3v2.2h-1.4V210h-5.4v-1.4l5.1-6.3h1.7v6.4h1.3v1.2zm-2.7-6c-.2.3-.6.8-.9 1.2l-1.9 2.4c-.3.4-.7.9-.9 1.1h3.7v-2.9c-.1-.5 0-1.4 0-1.8z"/></g><g id="g4571"><path id="path4569" d="M1089.1 208.8c0 2.4-1.6 3.5-3.9 3.5-1.3 0-2.4-.3-3.5-1l.7-1.2c.8.5 1.9.8 2.8.8 1.5 0 2.4-.8 2.4-2s-.8-1.8-2-1.8c-.8 0-1.4.2-1.9.6l-1.6-.6.3-4.8h6.1v1.4h-4.8l-.2 2.5c.6-.3 1.2-.5 2.1-.5 2.4 0 3.5 1.3 3.5 3.1z"/></g><g id="g4575"><path id="path4573" d="M1143.4 209c0 2.2-1.7 3.3-3.9 3.3-2.1 0-3.7-1.1-3.7-4 0-2.6 1.4-6.1 6.2-6.3v1.4c-2.3.1-3.8 1.1-4.5 3.2.7-.6 1.4-.8 2.6-.8 1.8.1 3.3 1.1 3.3 3.2zm-1.5.1c0-1.2-.8-1.7-2.3-1.7-1.4 0-2.3.6-2.3 1.7 0 1 .8 1.8 2.3 1.8 1.5 0 2.3-.7 2.3-1.8z"/></g><g id="g4579"><path id="path4577" d="M157.7 266.2h-7.5v-1.4l4.8-5.9c.3-.4.9-1 1.1-1.3h-5.7v-1.4h7.3v1.4l-4.8 5.9c-.3.4-.9 1-1.1 1.3h5.9v1.4z"/></g><g id="g4583"><path id="path4581" d="M212 266.2h-1.8l-1.1-1.9c-.4-.6-.9-1.6-1.1-2-.2.4-.7 1.4-1.1 2l-1.1 1.9h-1.7l3.1-5.1-2.9-4.8h1.8l.9 1.6c.3.6.9 1.7 1.1 2 .2-.4.7-1.4 1.1-2l.9-1.6h1.7L209 261l3 5.2z"/></g><g id="g4587"><path id="path4585" d="M265.8 264.4c-.7 1.2-1.9 1.9-3.4 1.9-2.6 0-4.2-2.1-4.2-5.1 0-3 1.6-5.1 4.2-5.1 1.6 0 2.7.7 3.4 1.9l-1.3.8c-.5-.8-1-1.2-2.1-1.2-1.7 0-2.7 1.4-2.7 3.6s.9 3.6 2.7 3.6c1 0 1.7-.4 2.2-1.2l1.2.8z"/></g><g id="g4591"><path id="path4589" d="m320.2 256.2-3.4 9.9h-1.6l-3.4-9.9h1.6l2.1 6.3.6 1.8c.1-.4.4-1.2.6-1.8l2-6.3h1.5z"/></g><g id="g4595"><path id="path4593" d="M373.8 263.1c0 2-1.2 3-3.4 3h-3.9v-9.9h4.1c1.7 0 2.8.9 2.8 2.6 0 1-.5 1.6-1.3 2 .9.2 1.7 1 1.7 2.3zm-1.8-4.2c0-.7-.4-1.3-1.4-1.3h-2.7v2.6h2.7c1 0 1.4-.6 1.4-1.3zm.4 4.3c0-1-.6-1.6-1.8-1.6h-2.7v3.3h2.7c1.3-.1 1.8-.8 1.8-1.7z"/></g><g id="g4599"><path id="path4597" d="M427.8 266.2h-1.4l-4-6.2c-.2-.4-.6-1-.7-1.2v7.4h-1.4v-9.9h1.5l3.8 6.1c.3.4.7 1.1.8 1.4v-7.4h1.4v9.8z"/></g><g id="g4603"><path id="path4601" d="M482.4 266.2H481v-6.9c-.1.3-.4 1-.6 1.6l-2.4 5.6-2.4-5.6c-.2-.6-.5-1.3-.6-1.6v6.9h-1.4v-9.9h1.5l2.2 5.3c.2.6.6 1.3.7 1.7.1-.4.4-1.1.7-1.7l2.2-5.3h1.6v9.9z"/></g><g id="g4609"><path id="path4605" d="m534 257-4.1-3.6v-1.2l4.1-3.6v1.8l-2.8 2.4 2.8 2.4v1.8z"/><path id="path4607" d="m533 272.7-1.1 3.8h-1l.2-3.8h1.9z"/></g><g id="g4615"><path id="path4611" d="M588.1 253.4 584 257v-1.8l2.8-2.4-2.8-2.4v-1.9l4.1 3.6v1.3z"/><path id="path4613" d="M587.1 273.7c0 .6-.5 1.1-1.1 1.1s-1.1-.5-1.1-1.1.5-1.1 1.1-1.1 1.1.5 1.1 1.1z"/></g><g id="g4621"><path id="path4617" d="M643.3 250.2c0 1.4-.6 2-1.8 2.7-.9.5-1.1.9-1.1 1.9h-1.5c0-1.7.3-2.2 1.9-3.1.7-.4 1-.7 1-1.4 0-.8-.7-1.2-1.9-1.2-1 0-1.8.4-2.5 1.1l-.9-1.1c.8-.8 2-1.5 3.5-1.5 1.9 0 3.3.9 3.3 2.6zm-2.6 6.6c0 .6-.5 1.1-1.1 1.1s-1.1-.5-1.1-1.1.5-1.1 1.1-1.1 1.1.5 1.1 1.1z"/><path id="path4619" d="m642.9 263.5-4.4 12.5H637l4.4-12.5h1.5z"/></g><g id="g4625"><path id="path4623" d="M912.4 259.8c-.1.2-.2.2-.4.2l-1.2-.4v8.6h-1.7v-8.6l-1.1.4c-.2.1-.3 0-.4-.2-.1-.1-.1-.2 0-.4l2.4-3.4 2.4 3.4c.1.2.1.3 0 .4z"/></g><g id="g4629"><path id="path4627" d="M1032.6 266.2h-1.5v-7.6h-1.8v-1c1-.1 1.9-.4 2-1.3h1.2v9.9z"/></g><g id="g4633"><path id="path4631" d="M1088.8 266.2h-7.1c.1-2.9 1.9-4.2 3.8-5.4 1.3-.8 1.7-1.2 1.7-1.9 0-.8-.5-1.3-1.9-1.3-.8 0-1.8.4-2.4 1l-1-1.1c.9-.8 2.2-1.3 3.4-1.3 2.1 0 3.4.9 3.4 2.7 0 1.5-.8 2.2-2.5 3.2-1.9 1.1-2.4 1.8-2.7 2.7h5.3v1.4z"/></g><g id="g4637"><path id="path4635" d="M1142.8 263.2c0 2-1.4 3.1-3.7 3.1-1.4 0-2.9-.6-3.6-1.6l1.1-1c.6.8 1.5 1.1 2.4 1.1 1.6 0 2.2-.6 2.2-1.6s-.8-1.5-1.8-1.5h-.9v-1.4h.9c.9 0 1.4-.6 1.4-1.4 0-.6-.4-1.4-1.9-1.4-.8 0-1.4.3-2 .9l-1.1-1c.8-.9 1.8-1.3 3.1-1.3 1.9 0 3.4 1 3.4 2.7 0 1.2-.5 1.8-1.2 2.2 1.1.2 1.7 1 1.7 2.2z"/></g><g id="g4641"><path id="path4639" d="M861.2 317.2h-7.1l.4 1.1c.1.2 0 .3-.2.4-.1.1-.2.1-.4 0l-3.7-2.4 3.7-2.4c.2-.1.3-.1.4-.1.2.1.2.2.2.4l-.4 1.2h7.1v1.8z"/></g><g id="g4645"><path id="path4643" d="M912.4 318.8c.1.1.1.2-.1.4l-2.4 3.4-2.4-3.4c-.1-.2-.1-.3 0-.4.1-.2.2-.2.4-.2l1.1.4v-8.6h1.7v8.6l1.2-.3c.3-.2.4-.1.5.1z"/></g><g id="g4649"><path id="path4647" d="m969.7 316.4-3.7 2.4c-.2.1-.3.1-.4 0-.2-.1-.2-.2-.2-.4l.4-1.1h-7.1v-1.7h7.1l-.4-1.2c-.1-.2 0-.3.2-.4.1-.1.2-.1.4.1l3.7 2.3z"/></g><g id="g4653"><path id="path4651" d="M1062.4 315.2c0 3-1.4 5.1-3.9 5.1s-3.9-2.1-3.9-5.1 1.4-5.1 3.9-5.1c2.6 0 3.9 2.1 3.9 5.1zm-1.5 0c0-2.1-.7-3.7-2.4-3.7s-2.4 1.6-2.4 3.7.7 3.7 2.4 3.7c1.8 0 2.4-1.6 2.4-3.7z"/></g><g id="g4657"><path id="path4655" d="M1140.6 319.2c0 .6-.5 1.1-1.1 1.1-.6 0-1.1-.5-1.1-1.1s.5-1.1 1.1-1.1c.6 0 1.1.5 1.1 1.1z"/></g><path id="path4659" d="M32.5 19.3c1.5 0 2.8.5 3.8 1.6 1 1 1.6 2.3 1.6 3.8s-.5 2.7-1.6 3.8c-1 1.1-2.3 1.6-3.8 1.6s-2.7-.5-3.8-1.6c-1.1-1.1-1.6-2.3-1.6-3.8h1c0 1.2.4 2.2 1.3 3.1s1.9 1.3 3.1 1.3c1.2 0 2.2-.4 3.1-1.3.9-.9 1.3-1.9 1.3-3.1 0-1.2-.4-2.2-1.3-3.1-.9-.9-1.9-1.3-3.1-1.3v-1zm.4 5-.7.7-3.7-3.7-1.3 1.3v-3.4h3.4l-1.3 1.3 3.6 3.8z"/><g id="g4667"><path id="path4661" d="M28.2 44h-5.3v-8H28v1.2h-3.9v2h2.3v1.2h-2.3v2.5h4.1V44z"/><path id="path4663" d="M35 41.7c0 1.4-.9 2.4-2.9 2.4-1.2 0-2.2-.5-2.8-1.3l.9-.8c.5.6 1.3.9 2.1.9 1.1 0 1.6-.4 1.6-1.2 0-.6-.5-.9-1.8-1.3-1.7-.5-2.5-.9-2.5-2.3s1.2-2.2 2.6-2.2c1.1 0 1.9.4 2.6 1.1l-.8.9c-.5-.5-1.1-.8-1.8-.8-.9 0-1.3.5-1.3 1 0 .6.4.8 1.7 1.2 1.4.5 2.4 1 2.4 2.4z"/><path id="path4665" d="M42.5 42.6c-.6 1-1.5 1.5-2.7 1.5-2.1 0-3.4-1.7-3.4-4.1 0-2.4 1.3-4.1 3.4-4.1 1.3 0 2.2.5 2.7 1.5l-1.1.7c-.4-.6-.8-1-1.6-1-1.4 0-2.1 1.1-2.1 2.9 0 1.8.7 2.9 2.1 2.9.8 0 1.3-.3 1.7-1l1 .7z"/></g><path id="path4669" d="M860.2 20.1c.1.3.1.6.2 1 0 .4.1.9.1 1.4v.7c0 .2 0 .5-.1.7s-.1.4-.1.6-.1.3-.1.4v.1c-.2.1-.5.2-.8.3-.3.1-.6.2-1 .3-.4.1-.7.1-1.1.2-.4 0-.8.1-1.2.1-.4 0-.8 0-1.2-.1s-.8-.1-1.1-.2-.7-.2-1-.3c-.3-.1-.5-.2-.7-.3h-.1v-.1c0-.1-.1-.3-.1-.5s-.1-.4-.1-.6c0-.2-.1-.4-.1-.7v-.7c0-.5 0-1 .1-1.4s.1-.8.2-1v-.1h.1c.3-.2.8-.3 1.3-.5s1.1-.3 1.8-.3l1.1-1.1h1.4v1.2c.5.1 1 .2 1.4.3.4.1.8.3 1 .5l.1.1zm-2 .1c-.1 0-.2 0-.3-.1-.1 0-.2-.1-.3-.1v2.7H854v-2.5l.3-.3c-.4.1-.7.1-1 .2s-.5.2-.7.3l-.1.7c0 .2-.1.4-.1.7v.7c0 .4 0 .8.1 1.2s.1.6.2.9l.6.3c.2.1.5.2.8.2.3.1.6.1 1 .1h2c.3 0 .7-.1.9-.1s.6-.1.8-.2l.6-.3c.1-.2.1-.5.2-.9s.1-.7.1-1.2 0-.8-.1-1.1c0-.4-.1-.6-.2-.9-.2-.1-.4-.1-.6-.2-.2 0-.4-.1-.6-.1zm-3.9.2v2.1h3.1v-4.1h-1v2h-2.1zm.2-.2h1.6v-1.6l-1.6 1.6zm3-.2c.1 0 .1 0 0 0 .1 0 .1 0 0 0z"/><g id="g4693"><path id="path4671" d="M848.6 31.9c0 1.2-.8 1.9-2 1.9H845V36h-.9v-6h2.5c1.2 0 2 .7 2 1.9zm-.9 0c0-.7-.4-1-1-1H845v2h1.6c.7 0 1.1-.4 1.1-1z"/><path id="path4673" d="M854.2 31.8c0 1-.5 1.5-1.3 1.7l1.2 2.4h-1l-1.2-2.4h-1.3V36h-.9v-6h2.6c1.1 0 1.9.6 1.9 1.8zm-.9 0c0-.6-.4-1-1-1h-1.7v1.9h1.7c.6.1 1-.2 1-.9z"/><path id="path4675" d="M856.6 36h-.9v-6h.9v6z"/><path id="path4677" d="M862.7 36h-.8l-2.4-3.7c-.1-.2-.3-.6-.4-.7V36h-.9v-6h.9l2.3 3.6c.2.2.4.7.5.8V30h.9v6z"/><path id="path4679" d="M868.2 30.9h-1.7V36h-.9v-5.1h-1.7V30h4.4v.9z"/><path id="path4681" d="M844.1 44.5c0 1.1-.7 1.8-2.2 1.8-.9 0-1.6-.4-2.1-1l.6-.6c.4.4 1 .7 1.5.7.8 0 1.2-.3 1.2-.9 0-.5-.3-.7-1.3-1-1.3-.4-1.9-.7-1.9-1.8 0-1 .9-1.7 2-1.7.8 0 1.4.3 1.9.8l-.6.6c-.4-.4-.8-.6-1.4-.6-.7 0-1 .3-1 .7 0 .4.3.6 1.3.9 1.3.6 2 1 2 2.1z"/><path id="path4683" d="M849.7 45.1c-.4.7-1.1 1.1-2 1.1-1.5 0-2.5-1.3-2.5-3.1s1-3.1 2.5-3.1c1 0 1.6.4 2 1.1l-.8.5c-.3-.5-.6-.7-1.2-.7-1 0-1.6.8-1.6 2.2s.6 2.2 1.6 2.2c.6 0 1-.3 1.3-.7l.7.5z"/><path id="path4685" d="M855.5 42c0 1-.5 1.5-1.3 1.7l1.2 2.4h-1l-1.2-2.4h-1.3v2.4h-.9v-5.9h2.6c1 0 1.9.6 1.9 1.8zm-.9 0c0-.6-.4-1-1-1h-1.7v2h1.7c.6 0 1-.3 1-1z"/><path id="path4687" d="M860.8 46.2h-4v-5.9h3.8v.9h-2.9v1.5h1.7v.9h-1.7v1.9h3.1v.7z"/><path id="path4689" d="M866.1 46.2h-4v-5.9h3.8v.9H863v1.5h1.7v.9H863v1.9h3.1v.7z"/><path id="path4691" d="M871.9 46.2h-.9l-2.4-3.7c-.1-.2-.3-.6-.4-.7v4.5h-.9v-5.9h.9l2.3 3.6c.2.2.4.7.5.8v-4.5h.9v5.9z"/></g><path id="path4695" d="M912.7 19.8h-.9l-.5-.4v5.3l.5-.4h.9l-2.7 2.2-2.7-2.1h.9l.5.4v-5.3l-.5.4h-.9l2.7-2.1 2.7 2zm-2.1-1-.5-.4-.5.4v6.4l.5.4.5-.4v-6.4z"/><g id="g4717"><path id="path4697" d="M898.4 34.3c0 1.1-.7 1.8-2.2 1.8-.9 0-1.6-.4-2.1-1l.6-.6c.4.4 1 .7 1.5.7.8 0 1.2-.3 1.2-.9 0-.5-.3-.7-1.3-1-1.3-.4-1.9-.7-1.9-1.8 0-1 .9-1.7 2-1.7.8 0 1.4.3 1.9.8l-.6.6c-.4-.4-.8-.6-1.4-.6-.7 0-1 .3-1 .7 0 .4.3.6 1.3.9 1.2.6 2 1 2 2.1z"/><path id="path4699" d="M904 34.9c-.4.7-1.1 1.1-2 1.1-1.5 0-2.5-1.3-2.5-3.1s1-3.1 2.5-3.1c1 0 1.6.4 2 1.1l-.8.5c-.3-.5-.6-.7-1.2-.7-1 0-1.6.8-1.6 2.2s.6 2.2 1.6 2.2c.6 0 1-.3 1.3-.7l.7.5z"/><path id="path4701" d="M909.8 31.8c0 1-.5 1.5-1.3 1.7l1.2 2.4h-1l-1.2-2.4h-1.3V36h-.9v-6h2.6c1 0 1.9.6 1.9 1.8zm-.9 0c0-.6-.4-1-1-1h-1.7v1.9h1.7c.5.1 1-.2 1-.9z"/><path id="path4703" d="M915.8 33c0 1.9-1 3.1-2.5 3.1s-2.5-1.2-2.5-3.1c0-1.9 1-3.1 2.5-3.1s2.5 1.2 2.5 3.1zm-.9 0c0-1.4-.7-2.2-1.6-2.2-.9 0-1.6.8-1.6 2.2 0 1.4.7 2.2 1.6 2.2.9 0 1.6-.8 1.6-2.2z"/><path id="path4705" d="M920.9 36H917v-6h.9v5.1h3v.9z"/><path id="path4707" d="M926 36h-3.9v-6h.9v5.1h3v.9z"/><path id="path4709" d="M903.5 46.2h-3.9v-5.9h.9v5.1h3v.8z"/><path id="path4711" d="M909.2 43.2c0 1.9-1 3.1-2.5 3.1s-2.5-1.2-2.5-3.1c0-1.9 1-3.1 2.5-3.1s2.5 1.2 2.5 3.1zm-.9 0c0-1.4-.7-2.2-1.6-2.2-.9 0-1.6.8-1.6 2.2 0 1.4.7 2.2 1.6 2.2 1 0 1.6-.8 1.6-2.2z"/><path id="path4713" d="M914.8 45.1c-.4.7-1.1 1.1-2 1.1-1.5 0-2.5-1.3-2.5-3.1s1-3.1 2.5-3.1c1 0 1.6.4 2 1.1l-.8.5c-.3-.5-.6-.7-1.2-.7-1 0-1.6.8-1.6 2.2s.6 2.2 1.6 2.2c.6 0 1-.3 1.3-.7l.7.5z"/><path id="path4715" d="M920.8 46.2h-1l-1.7-3.1-1.1 1.3v1.7h-.9v-5.9h.9v3.1c.1-.2.5-.6.7-.9l1.8-2.2h1l-1.7 2.2 2 3.8z"/></g><path id="path4719" d="M961.2 22c0 .3 0 .7-.1 1-.1.3-.2.6-.4.9-.2.3-.4.5-.6.8-.2.2-.5.4-.8.6-.3.2-.6.3-.9.4-.3.1-.7.1-1 .1-.3 0-.7 0-1-.1-.3-.1-.6-.2-.9-.4-.3-.2-.5-.4-.8-.6-.2-.2-.4-.5-.6-.8-.2-.3-.3-.6-.4-.9-.1-.3-.1-.7-.1-1 0-.4 0-.7.1-1 .1-.3.2-.6.4-.9.2-.3.4-.5.6-.8.2-.2.5-.4.8-.6.3-.2.6-.3.9-.4.3-.1.7-.1 1-.1.3 0 .7 0 1 .1.3.1.6.2.9.4s.5.4.8.6c.2.2.4.5.6.8.2.3.3.6.4.9s.1.7.1 1zm-1.6.4-2.2 2.4-2.2-2.4h-.8c0 .4.1.7.3 1.1.2.3.4.6.6.8l.9.6c.3.1.7.2 1.1.2.4 0 .8-.1 1.1-.2.4-.1.7-.3.9-.6s.5-.5.6-.8c.2-.3.3-.7.3-1.1h-.6zm.8-.9c0-.4-.1-.7-.3-1-.2-.3-.4-.6-.7-.8s-.6-.4-.9-.5c-.3-.1-.7-.2-1.1-.2-.4 0-.8.1-1.1.2-.3.1-.6.3-.9.5s-.5.5-.7.8c-.2.3-.3.6-.3 1h1l1.9 2.1 1.9-2.1h1.2z"/><path id="path4721" d="M974 22c0 .3 0 .7-.1 1s-.2.6-.4.9-.4.5-.6.8c-.2.2-.5.4-.8.6-.3.2-.6.3-.9.4-.3.1-.7.1-1 .1s-.7 0-1-.1-.6-.2-.9-.4c-.3-.2-.5-.4-.8-.6-.2-.2-.4-.5-.6-.8s-.3-.6-.4-.9-.1-.7-.1-1 0-.7.1-1 .2-.6.4-.9c.2-.3.4-.5.6-.8.2-.2.5-.4.8-.6.3-.2.6-.3.9-.4.3-.1.7-.1 1-.1s.7 0 1 .1c.3.1.6.2.9.4.3.2.5.4.8.6.2.2.4.5.6.8.2.3.3.6.4.9 0 .3.1.7.1 1zm-.8 0c0-.3 0-.5-.1-.8s-.2-.5-.3-.7-.3-.4-.5-.6-.4-.3-.6-.5c-.2-.1-.5-.2-.7-.3-.3-.1-.5-.1-.8-.1-.4 0-.8.1-1.2.2-.4.2-.7.4-1 .7s-.5.6-.7 1c-.2.4-.2.8-.2 1.2s.1.8.2 1.2c.2.4.4.7.7 1s.6.5 1 .7c.4.2.8.2 1.2.2.4 0 .8-.1 1.2-.2.4-.2.7-.4 1-.7s.5-.6.7-1 .1-.9.1-1.3zm-5.7-1.4h5.4l-2.7 4.5-2.7-4.5zm4.6.5h-3.8l1.9 3.2 1.9-3.2z"/><g id="g4733"><path id="path4723" d="M955.5 32.2c0 1.2-.8 1.9-2 1.9H952v2.2h-.9v-5.9h2.5c1.1-.1 1.9.5 1.9 1.8zm-.9 0c0-.7-.4-1-1-1H952v2h1.6c.7 0 1-.4 1-1z"/><path id="path4725" d="M960.9 36.2h-1l-.5-1.4H957l-.5 1.4h-.9l2.1-5.9h.9l2.3 5.9zm-1.7-2.2-.5-1.4c-.1-.4-.4-1.1-.5-1.4-.1.3-.3.9-.4 1.4l-.5 1.4h1.9z"/><path id="path4727" d="M966.4 33.8c0 1.7-.8 2.6-2.3 2.6-1.5 0-2.2-1-2.2-2.6v-3.5h.9v3.4c0 1.1.5 1.7 1.4 1.7.9 0 1.4-.6 1.4-1.7v-3.5h.9v3.6z"/><path id="path4729" d="M971.9 34.5c0 1.1-.7 1.8-2.2 1.8-.9 0-1.6-.4-2.1-1l.6-.6c.4.4 1 .7 1.5.7.8 0 1.2-.3 1.2-.9 0-.5-.3-.7-1.3-1-1.3-.4-1.9-.7-1.9-1.8 0-1 .9-1.7 2-1.7.8 0 1.4.3 1.9.8l-.6.6c-.4-.4-.8-.6-1.4-.6-.7 0-1 .3-1 .7 0 .4.3.6 1.3.9 1.2.7 2 1.1 2 2.1z"/><path id="path4731" d="M977.2 36.2h-4v-5.9h3.8v.9h-2.9v1.5h1.7v.9h-1.7v1.9h3.1v.7z"/></g><g id="g4745"><path id="path4735" d="M954.8 44.6c0 1.2-.7 1.8-2 1.8h-2.4v-5.9h2.4c1 0 1.7.5 1.7 1.5 0 .6-.3 1-.8 1.2.6.2 1.1.6 1.1 1.4zm-1.1-2.5c0-.4-.2-.8-.8-.8h-1.6v1.5h1.6c.5.1.8-.3.8-.7zm.2 2.6c0-.6-.4-1-1.1-1h-1.6v2h1.6c.8-.1 1.1-.5 1.1-1z"/><path id="path4737" d="M960.7 42.3c0 1-.5 1.5-1.3 1.7l1.2 2.4h-1l-1.2-2.4H957v2.4h-.9v-5.9h2.6c1.1 0 2 .6 2 1.8zm-.9 0c0-.6-.4-1-1-1H957v1.9h1.7c.6.1 1.1-.2 1.1-.9z"/><path id="path4739" d="M966 46.5h-4v-5.9h3.8v.9h-2.9V43h1.7v.9h-1.7v1.9h3.1v.7z"/><path id="path4741" d="M972.1 46.5h-1l-.5-1.4h-2.4l-.5 1.4h-.9l2.1-5.9h.9l2.3 5.9zm-1.7-2.3-.5-1.4c-.1-.4-.4-1.1-.5-1.4-.1.3-.3.9-.4 1.4l-.5 1.4h1.9z"/><path id="path4743" d="M978 46.5h-1l-1.7-3.1-1.1 1.3v1.7h-.9v-5.9h.9v3.1c.1-.2.5-.6.7-.9l1.8-2.2h1l-1.7 2.2 2 3.8z"/></g><path id="path4747" d="m759.2 97.2-5.1-5.1 5.1-5.1h9.5v10.2h-9.5zm-3.7-5.1 4.1 4.1h8.1V88h-8.1l-4.1 4.1zm7.2.7-2.3 2.3-.7-.7 2.3-2.3-2.3-2.3.7-.7 2.3 2.3 2.3-2.3.7.7-2.3 2.3 2.3 2.3-.7.7-2.3-2.3z"/><g id="g4767"><path id="path4749" d="M735.4 109c0 1.6-1 2.4-2.7 2.4h-3.2v-7.9h3.3c1.4 0 2.3.7 2.3 2.1 0 .8-.4 1.3-1 1.6.6.1 1.3.7 1.3 1.8zm-1.5-3.4c0-.6-.3-1-1.1-1h-2.1v2.1h2.1c.8-.1 1.1-.6 1.1-1.1zm.3 3.4c0-.8-.5-1.3-1.4-1.3h-2.2v2.6h2.1c1.2 0 1.5-.5 1.5-1.3z"/><path id="path4751" d="M743.5 111.4h-1.3l-.7-1.9h-3.2l-.7 1.9h-1.2l2.9-7.9h1.3l2.9 7.9zm-2.3-3-.6-1.8-.6-1.8-.6 1.8-.6 1.8h2.4z"/><path id="path4753" d="M750.5 110c-.6 1-1.5 1.5-2.7 1.5-2.1 0-3.4-1.7-3.4-4.1 0-2.4 1.3-4.1 3.4-4.1 1.3 0 2.2.5 2.7 1.5l-1.1.7c-.4-.6-.8-1-1.6-1-1.4 0-2.1 1.1-2.1 2.9 0 1.8.7 2.9 2.1 2.9.8 0 1.3-.3 1.7-1l1 .7z"/><path id="path4755" d="M758.5 111.4h-1.3l-2.3-4.1-1.5 1.8v2.3h-1.2v-7.9h1.2v4.1c.1-.2.7-.9.9-1.2l2.3-2.9h1.3l-2.3 2.9 2.9 5z"/><path id="path4757" d="M764.9 109.1c0 1.4-.9 2.4-2.9 2.4-1.2 0-2.2-.5-2.8-1.3l.8-.8c.5.6 1.3.9 2.1.9 1.1 0 1.6-.4 1.6-1.2 0-.6-.5-.9-1.8-1.3-1.7-.5-2.5-.9-2.5-2.3s1.2-2.2 2.6-2.2c1.1 0 1.9.4 2.6 1.1l-.8.9c-.5-.5-1.1-.8-1.8-.8-.9 0-1.3.5-1.3 1 0 .6.4.8 1.7 1.2 1.5.5 2.5 1 2.5 2.4z"/><path id="path4759" d="M772.5 105.9c0 1.6-1.1 2.5-2.6 2.5h-2.1v3h-1.2v-7.9h3.3c1.6 0 2.6.8 2.6 2.4zm-1.2 0c0-.9-.5-1.4-1.4-1.4h-2.1v2.7h2.1c1 .1 1.4-.4 1.4-1.3z"/><path id="path4761" d="M779.8 111.4h-1.3l-.7-1.9h-3.2l-.7 1.9h-1.2l2.9-7.9h1.3l2.9 7.9zm-2.3-3-.6-1.8-.6-1.8-.6 1.8-.6 1.8h2.4z"/><path id="path4763" d="M786.8 110c-.6 1-1.5 1.5-2.7 1.5-2.1 0-3.4-1.7-3.4-4.1 0-2.4 1.3-4.1 3.4-4.1 1.3 0 2.2.5 2.7 1.5l-1.1.7c-.4-.6-.8-1-1.6-1-1.4 0-2.1 1.1-2.1 2.9 0 1.8.7 2.9 2.1 2.9.8 0 1.3-.3 1.7-1l1 .7z"/><path id="path4765" d="M793.8 111.4h-5.3v-7.9h5.1v1.2h-3.9v2h2.3v1.2h-2.3v2.5h4.1v1z"/></g><path id="path4769" d="M848.5 87.9h1.5l5.9 6.3 5.9-6.3h1.6l-7.5 7.9-7.4-7.9zm8.3 3.2c-.1-.2-.1-.4-.1-.5-.3.3-.5.5-.7.5-.2.1-.4.1-.6.1-.3 0-.6-.1-.8-.3s-.3-.5-.3-.8c0-.4.2-.7.5-.9.3-.2.9-.4 1.6-.5l.4-.1v-.4c0-.2-.1-.4-.2-.5-.2-.1-.4-.1-.6-.1-.3 0-.5.1-.6.2-.2.1-.2.3-.2.4v.1h-.7v-.1c0-.2.1-.3.2-.5s.3-.3.6-.4.5-.1.8-.1c.3 0 .5 0 .8.1.2.1.4.2.5.4.1.2.2.4.2.8v2c0 .2.1.4.1.6h-.9zm-.1-1.9h-.2c-.7.2-1.1.3-1.3.5-.2.1-.3.3-.3.5 0 .1 0 .2.1.3.1.1.1.2.2.2.1.1.2.1.3.1.2 0 .4-.1.5-.2.2-.1.3-.2.4-.4.1-.2.1-.4.1-.6v-.4z"/><g id="g4783"><path id="path4771" d="M838.3 111.2h-1.2v-7.9h1.2v7.9z"/><path id="path4773" d="M846.4 111.2h-1.1l-3.2-5c-.2-.3-.5-.8-.6-1v5.9h-1.2v-7.9h1.2l3 4.8c.2.3.5.9.7 1.1v-6h1.2v8.1z"/><path id="path4775" d="M853.8 109c0 1.4-.9 2.4-2.9 2.4-1.2 0-2.2-.5-2.8-1.3l.8-.8c.5.6 1.3.9 2.1.9 1.1 0 1.6-.4 1.6-1.2 0-.6-.5-.9-1.8-1.3-1.7-.5-2.5-.9-2.5-2.3s1.2-2.2 2.6-2.2c1.1 0 1.9.4 2.6 1.1l-.8.9c-.5-.5-1.1-.8-1.8-.8-.9 0-1.3.5-1.3 1 0 .6.4.8 1.7 1.2 1.5.5 2.5 1 2.5 2.4z"/><path id="path4777" d="M860.9 111.2h-5.3v-7.9h5.1v1.2h-3.9v2h2.3v1.2h-2.3v2.5h4.1v1z"/><path id="path4779" d="M868.6 105.7c0 1.3-.7 2.1-1.7 2.3l1.6 3.2h-1.4l-1.6-3.1h-1.8v3.1h-1.2v-7.9h3.5c1.4 0 2.6.7 2.6 2.4zm-1.2 0c0-.8-.5-1.3-1.3-1.3h-2.3v2.6h2.3c.7 0 1.3-.4 1.3-1.3z"/><path id="path4781" d="M875.5 104.5h-2.3v6.8H872v-6.8h-2.3v-1.2h5.8v1.2z"/></g><path id="path4785" d="M913.8 87.9v.5h-7.1v7.1h-.5v-7.6h7.6zm-6 2 .4-.4h2.9v.9h-1.6l4.3 4.3-.8.8-4.3-4.3v1.6h-.9v-2.9z"/><g id="g4795"><path id="path4787" d="M900.9 110.4h-1.2v-3.5H896v3.5h-1.2v-7.9h1.2v3.2h3.7v-3.2h1.2v7.9z"/><path id="path4789" d="M909.4 106.5c0 2.5-1.4 4.1-3.4 4.1s-3.4-1.6-3.4-4.1c0-2.5 1.4-4.1 3.4-4.1s3.4 1.6 3.4 4.1zm-1.2 0c0-1.8-.9-2.9-2.2-2.9-1.3 0-2.1 1.1-2.1 2.9s.9 2.9 2.2 2.9c1.2 0 2.1-1.1 2.1-2.9z"/><path id="path4791" d="M918.1 110.4H917v-5.6c-.1.2-.3.8-.5 1.2l-1.9 4.5-1.9-4.5c-.2-.5-.4-1-.5-1.2v5.6H911v-7.9h1.2l1.8 4.2c.2.5.4 1 .5 1.4.1-.3.3-.9.5-1.4l1.7-4.2h1.3v7.9z"/><path id="path4793" d="M925.5 110.4h-5.3v-7.9h5.1v1.2h-3.9v2h2.3v1.2h-2.3v2.5h4.1v1z"/></g><path id="path4797" d="M964.5 92.3h1.8v1h-1.8v1.2h1.8v1h-1.8v2.7h-1v-2.7h-1.8v-1h1.8v-1.2h-1.8v-1h1.8v-2.1H961l3-3 3 3h-2.5v2.1z"/><g id="g4807"><path id="path4799" d="M954.4 105.9c0 1.6-1.1 2.4-2.6 2.4h-2v2.9h-1.1v-7.7h3.2c1.4-.1 2.5.8 2.5 2.4zm-1.2 0c0-.9-.5-1.3-1.3-1.3h-2.1v2.7h2.1c.9-.1 1.3-.6 1.3-1.4z"/><path id="path4801" d="M961.7 108.2c0 2-1.2 3.2-2.9 3.2-2 0-3.3-1.6-3.3-4s1.3-4 3.3-4c1.3 0 2.1.5 2.6 1.4l-1 .6c-.4-.6-.8-.9-1.6-.9-1.3 0-2.1 1.1-2.1 2.8s.7 2.8 2.1 2.8c1.3 0 1.8-.8 1.8-1.7h-1.3v-1.1h2.4v.9z"/><path id="path4803" d="M972.2 108c0 2.2-1.1 3.4-3 3.4s-2.9-1.2-2.9-3.4v-4.5h1.2v4.5c0 1.5.6 2.2 1.8 2.2 1.2 0 1.8-.8 1.8-2.2v-4.5h1.2v4.5z"/><path id="path4805" d="M979.9 105.9c0 1.6-1.1 2.4-2.6 2.4h-2v2.9h-1.1v-7.7h3.2c1.4-.1 2.5.8 2.5 2.4zm-1.2 0c0-.9-.5-1.3-1.3-1.3h-2.1v2.7h2.1c.8-.1 1.3-.6 1.3-1.4z"/></g><path id="path4809" d="M1030.1 91v-3.4h-1.2l2.6-2.6 2.6 2.6h-1.2V91h1.2v2h-5.2v-2h1.2zm1.2-5-1.1 1.1h.4v4.4h-1.2v1h1.9V86zm.4 0v6.5h1.9v-1h-1.2v-4.4h.4l-1.1-1.1z"/><path id="path4811" d="M1027.3 103.2h-.8l-2.4-3.7c-.1-.2-.3-.6-.4-.7v4.5h-.9v-5.9h.9l2.3 3.6c.2.2.4.7.5.8v-4.5h.9v5.9z"/><path id="path4813" d="M1033.4 100.7c0 1.7-.8 2.6-2.3 2.6-1.5 0-2.2-1-2.2-2.6v-3.5h.9v3.4c0 1.1.5 1.7 1.4 1.7.9 0 1.4-.6 1.4-1.7v-3.5h.9v3.6z"/><path id="path4815" d="M1040.2 103.2h-.9V99c-.1.2-.2.6-.4.9l-1.4 3.3-1.4-3.3c-.1-.3-.3-.8-.4-.9v4.1h-.8v-5.9h.9l1.3 3.2c.1.3.3.8.4 1 .1-.2.3-.7.4-1l1.3-3.2h1v6z"/><path id="path4817" d="M1025 113.4h-3.9v-5.9h.9v5.1h3v.8z"/><path id="path4819" d="M1030.7 110.4c0 1.9-1 3.1-2.5 3.1s-2.5-1.2-2.5-3.1c0-1.9 1-3.1 2.5-3.1s2.5 1.2 2.5 3.1zm-.9 0c0-1.4-.7-2.2-1.6-2.2-.9 0-1.6.8-1.6 2.2 0 1.4.7 2.2 1.6 2.2 1 0 1.6-.9 1.6-2.2z"/><path id="path4821" d="M1036.3 112.3c-.4.7-1.1 1.1-2 1.1-1.5 0-2.5-1.3-2.5-3.1s1-3.1 2.5-3.1c1 0 1.6.4 2 1.1l-.8.5c-.3-.5-.6-.7-1.2-.7-1 0-1.6.8-1.6 2.2s.6 2.2 1.6 2.2c.6 0 1-.3 1.3-.7l.7.5z"/><path id="path4823" d="M1042.3 113.4h-1l-1.7-3.1-1.1 1.3v1.7h-.9v-5.9h.9v3.1c.1-.2.5-.6.7-.9l1.8-2.2h1l-1.7 2.2 2 3.8z"/><path id="path4825" d="m44.2 141.3-1.9 2h10v.9h-10l1.9 2-.5.5-3.1-2.9v2.6h-.9V141h.9v2.6l3.1-2.9.5.6zm8.1 5.5v5.4h-.9v-2.6l-3.1 2.9-.5-.5 1.9-2h-10v-.9h10l-1.9-2 .5-.5 3.1 2.9v-2.6h.9z"/><g id="g4833"><path id="path4827" d="M41.6 158.9h-2.3v6.8h-1.2v-6.8h-2.3v-1.2h5.8v1.2z"/><path id="path4829" d="M48.6 165.6h-1.3l-.7-1.9h-3.2l-.7 1.9h-1.2l2.9-7.9h1.3l2.9 7.9zm-2.3-2.9-.6-1.8-.6-1.8-.6 1.8-.6 1.8h2.4z"/><path id="path4831" d="M56 163.2c0 1.6-1 2.4-2.7 2.4h-3.2v-7.9h3.3c1.4 0 2.3.7 2.3 2.1 0 .8-.4 1.3-1 1.6.6.1 1.3.7 1.3 1.8zm-1.5-3.4c0-.6-.3-1-1.1-1h-2.1v2.1h2.1c.8-.1 1.1-.6 1.1-1.1zm.4 3.4c0-.8-.5-1.3-1.4-1.3h-2.2v2.6h2.1c1.1 0 1.5-.5 1.5-1.3z"/></g><path id="path4835" d="M858.3 151.7h-9.5v-10.2h9.5l5.1 5.1-5.1 5.1zm3.7-5.1-4.1-4.1h-8.1v8.2h8.1l4.1-4.1zm-7.2.7-2.3 2.3-.7-.7 2.3-2.3-2.3-2.3.7-.7 2.3 2.3 2.3-2.3.7.7-2.3 2.3 2.3 2.3-.7.7-2.3-2.3z"/><g id="g4843"><path id="path4837" d="M852.4 161.3c0 2.8-1.8 4-3.9 4h-2.2v-7.9h2.2c2.1 0 3.9 1.1 3.9 3.9zm-1.3 0c0-1.7-.8-2.8-2.7-2.8h-1v5.6h1c2 .1 2.7-1.1 2.7-2.8z"/><path id="path4839" d="M859.3 165.3H854v-7.9h5.1v1.2h-3.9v2h2.3v1.2h-2.3v2.5h4.1v1z"/><path id="path4841" d="M866.1 165.3H861v-7.9h1.2v6.8h4v1.1z"/></g><path id="path4845" d="M911.8 148.6h-2.9v-.9h1.6l-4.3-4.3.8-.8 4.3 4.3v-1.6h.9v2.9l-.4.4zm2-5.9v7.6h-7.6v-.5h7.1v-7.1h.5z"/><g id="g4853"><path id="path4847" d="M904.9 165.3h-5.3v-7.9h5.1v1.2h-3.9v2h2.3v1.2h-2.3v2.5h4.1v1z"/><path id="path4849" d="M912.7 165.3h-1.1l-3.2-5c-.2-.3-.5-.8-.6-1v5.9h-1.2v-7.9h1.2l3 4.8c.2.3.5.9.7 1.1v-6h1.2v8.1z"/><path id="path4851" d="M920.7 161.3c0 2.8-1.8 4-3.9 4h-2.2v-7.9h2.2c2.2 0 3.9 1.1 3.9 3.9zm-1.2 0c0-1.7-.8-2.8-2.7-2.8h-1v5.6h1c2 .1 2.7-1.1 2.7-2.8z"/></g><path id="path4855" d="M963.5 147.4h-1.8v-1h1.8v-1.2h-1.8v-1h1.8v-2.7h1v2.7h1.8v1h-1.8v1.2h1.8v1h-1.8v2.1h2.5l-3 3-3-3h2.5v-2.1z"/><g id="g4865"><path id="path4857" d="M953.9 159.9c0 1.6-1.1 2.5-2.6 2.5h-2.1v3H948v-7.9h3.3c1.5-.1 2.6.7 2.6 2.4zm-1.2 0c0-.9-.5-1.4-1.4-1.4h-2.1v2.7h2.1c1 0 1.4-.5 1.4-1.3z"/><path id="path4859" d="M961.5 162.2c0 2-1.2 3.2-3 3.2-2.1 0-3.4-1.7-3.4-4.1 0-2.4 1.3-4.1 3.4-4.1 1.3 0 2.2.5 2.7 1.5l-1 .6c-.4-.6-.8-.9-1.7-.9-1.4 0-2.1 1.1-2.1 2.9 0 1.8.8 2.9 2.1 2.9s1.8-.9 1.8-1.8H959v-1.1h2.5v.9z"/><path id="path4861" d="M972.2 161.3c0 2.8-1.8 4-3.9 4h-2.2v-7.9h2.2c2.2 0 3.9 1.1 3.9 3.9zm-1.2 0c0-1.7-.8-2.8-2.7-2.8h-1v5.6h1c2 .1 2.7-1.1 2.7-2.8z"/><path id="path4863" d="M979.9 165.3h-1.1l-3.2-5c-.2-.3-.5-.8-.6-1v5.9h-1.2v-7.9h1.2l3 4.8c.2.3.5.9.7 1.1v-6h1.2v8.1z"/></g><path id="path4867" d="m47.2 200.4 5.6-5.6 5.6 5.6h-2.8v2.1H50v-2.1h-2.8zm5.6-4.4-3.7 3.7h1.7v2h4v-2h1.7l-3.7-3.7zm-2.8 8.1h5.6v2.8H50v-2.8zm.8.8v1.2h4v-1.2h-4z"/><g id="g4885"><path id="path4869" d="M28.3 218.2c-.6 1-1.5 1.5-2.7 1.5-2.1 0-3.4-1.7-3.4-4.1s1.3-4.1 3.4-4.1c1.3 0 2.2.5 2.7 1.5l-1.1.7c-.4-.6-.8-1-1.6-1-1.4 0-2.1 1.1-2.1 2.9 0 1.8.7 2.9 2.1 2.9.8 0 1.3-.3 1.7-1l1 .7z"/><path id="path4871" d="M36.3 219.5H35l-.7-1.9h-3.2l-.7 1.9h-1.2l2.9-7.9h1.3l2.9 7.9zm-2.3-2.9-.6-1.8-.6-1.8-.6 1.8-.6 1.8H34z"/><path id="path4873" d="M43.7 214.1c0 1.6-1.1 2.5-2.6 2.5H39v3h-1.2v-7.9h3.3c1.6-.1 2.6.8 2.6 2.4zm-1.2 0c0-.9-.5-1.4-1.4-1.4H39v2.7h2.1c1 .1 1.4-.5 1.4-1.3z"/><path id="path4875" d="M50.5 217.3c0 1.4-.9 2.4-2.9 2.4-1.2 0-2.2-.5-2.8-1.3l.9-.8c.5.6 1.3.9 2.1.9 1.1 0 1.6-.4 1.6-1.2 0-.6-.5-.9-1.8-1.3-1.7-.5-2.5-.9-2.5-2.3s1.2-2.2 2.6-2.2c1.1 0 1.9.4 2.6 1.1l-.8.8c-.5-.5-1.1-.8-1.8-.8-.9 0-1.3.5-1.3 1 0 .6.4.8 1.7 1.2 1.4.6 2.4 1.1 2.4 2.5z"/><path id="path4877" d="M60.5 219.5h-5.1v-7.9h1.2v6.8h4v1.1z"/><path id="path4879" d="M68.1 215.6c0 2.5-1.4 4.1-3.4 4.1s-3.4-1.6-3.4-4.1 1.4-4.1 3.4-4.1c2.1 0 3.4 1.6 3.4 4.1zm-1.2 0c0-1.8-.9-2.9-2.2-2.9-1.3 0-2.1 1.1-2.1 2.9s.9 2.9 2.2 2.9c1.2 0 2.1-1.1 2.1-2.9z"/><path id="path4881" d="M75.5 218.2c-.6 1-1.5 1.5-2.7 1.5-2.1 0-3.4-1.7-3.4-4.1s1.3-4.1 3.4-4.1c1.3 0 2.2.5 2.7 1.5l-1.1.7c-.4-.6-.8-1-1.6-1-1.4 0-2.1 1.1-2.1 2.9 0 1.8.7 2.9 2.1 2.9.8 0 1.3-.3 1.7-1l1 .7z"/><path id="path4883" d="M83.5 219.5h-1.3l-2.3-4.1-1.5 1.8v2.3h-1.2v-7.9h1.2v4.1c.1-.2.7-.9.9-1.2l2.3-2.9H83l-2.3 2.9 2.8 5z"/></g><path id="path4887" d="m748.9 200.5 3-3v2.5h7.1v-4.4h-3.5v-1h4.6v6.4H752v2.5l-3.1-3z"/><g id="g4901"><path id="path4889" d="M739 214.2c0 1.3-.7 2.1-1.7 2.3l1.6 3.2h-1.4l-1.6-3.1h-1.8v3.1h-1.2v-7.9h3.5c1.4 0 2.6.8 2.6 2.4zm-1.2.1c0-.8-.5-1.3-1.3-1.3h-2.3v2.6h2.3c.7-.1 1.3-.5 1.3-1.3z"/><path id="path4891" d="M746.1 219.8h-5.3v-7.9h5.1v1.2H742v2h2.3v1.2H742v2.5h4.1v1z"/><path id="path4893" d="M753.1 213h-2.3v6.8h-1.2V213h-2.3v-1.2h5.8v1.2z"/><path id="path4895" d="M760.6 216.5c0 2.2-1.1 3.4-3 3.4-2 0-3-1.3-3-3.5v-4.6h1.2v4.6c0 1.5.6 2.3 1.8 2.3 1.2 0 1.8-.8 1.8-2.2v-4.6h1.2v4.6z"/><path id="path4897" d="M768.7 214.2c0 1.3-.7 2.1-1.7 2.3l1.6 3.2h-1.4l-1.6-3.1h-1.8v3.1h-1.2v-7.9h3.5c1.4 0 2.6.8 2.6 2.4zm-1.2.1c0-.8-.5-1.3-1.3-1.3h-2.3v2.6h2.3c.7-.1 1.3-.5 1.3-1.3z"/><path id="path4899" d="M776.6 219.8h-1.1l-3.2-5c-.2-.3-.5-.8-.6-1v5.9h-1.2v-7.9h1.2l3 4.8c.2.3.5.9.7 1.1v-6h1.2v8.1z"/></g><path id="path4903" d="m60.4 254.4 5.9-5.9 5.9 5.9h-2.9v5.2h-5.9v-5.2h-3zm5.8-4.6-3.9 3.9h1.8v5.1h4.2v-5.1h1.8l-3.9-3.9z"/><g id="g4915"><path id="path4905" d="M56.6 271.5c0 1.4-.9 2.4-2.9 2.4-1.2 0-2.2-.5-2.8-1.3l.9-.8c.5.6 1.3.9 2.1.9 1.1 0 1.6-.4 1.6-1.2 0-.6-.5-.9-1.8-1.3-1.7-.5-2.5-.9-2.5-2.3s1.2-2.2 2.6-2.2c1.1 0 1.9.4 2.6 1.1l-.8.8c-.5-.5-1.1-.8-1.8-.8-.9 0-1.3.5-1.3 1 0 .6.4.8 1.7 1.2 1.4.6 2.4 1.1 2.4 2.5z"/><path id="path4907" d="M64.4 273.8h-1.2v-3.5h-3.7v3.5h-1.2v-7.9h1.2v3.2h3.7v-3.2h1.2v7.9z"/><path id="path4909" d="M67.7 273.8h-1.2v-7.9h1.2v7.9z"/><path id="path4911" d="M74.9 267.1H71v2.1h2.3v1.2H71v3.5h-1.2V266h5.1v1.1z"/><path id="path4913" d="M81.7 267.1h-2.3v6.8h-1.2v-6.8h-2.3v-1.2h5.8v1.2z"/></g><path id="path4917" d="m735.4 254.4 5.9-5.9 5.9 5.9h-2.9v5.2h-5.9v-5.2h-3zm5.8-4.6-3.9 3.9h1.8v5.1h4.2v-5.1h1.8l-3.9-3.9z"/><g id="g4929"><path id="path4919" d="M731.6 271.5c0 1.4-.9 2.4-2.9 2.4-1.2 0-2.2-.5-2.8-1.3l.8-.8c.5.6 1.3.9 2.1.9 1.1 0 1.6-.4 1.6-1.2 0-.6-.5-.9-1.8-1.3-1.7-.5-2.5-.9-2.5-2.3s1.2-2.2 2.6-2.2c1.1 0 1.9.4 2.6 1.1l-.8.8c-.5-.5-1.1-.8-1.8-.8-.9 0-1.3.5-1.3 1 0 .6.4.8 1.7 1.2 1.5.6 2.5 1.1 2.5 2.5z"/><path id="path4921" d="M739.4 273.8h-1.2v-3.5h-3.7v3.5h-1.2v-7.9h1.2v3.2h3.7v-3.2h1.2v7.9z"/><path id="path4923" d="M742.7 273.8h-1.2v-7.9h1.2v7.9z"/><path id="path4925" d="M749.9 267.1H746v2.1h2.3v1.2H746v3.5h-1.2V266h5.1v1.1z"/><path id="path4927" d="M756.7 267.1h-2.3v6.8h-1.2v-6.8h-2.3v-1.2h5.8v1.2z"/></g><path id="path4931" d="m1188.1 291.5 5.4-5.4 5.4 5.4-1 1-4.5-4.5-4.4 4.5-.9-1zm3.1-5.4v1.4h-3.2v-1.4h3.2zm7.7 0v1.4h-3.2v-1.4h3.2z"/><g id="g4943"><path id="path4933" d="M1181.4 326.4h-5.3v-7.9h5.1v1.2h-3.9v2h2.3v1.2h-2.3v2.5h4.1v1z"/><path id="path4935" d="M1189.1 326.4h-1.1l-3.2-5c-.2-.3-.5-.8-.6-1v5.9h-1.2v-7.9h1.2l3 4.8c.2.3.5.9.7 1.1v-6h1.2v8.1z"/><path id="path4937" d="M1196.5 319.7h-2.3v6.8h-1.2v-6.8h-2.3v-1.2h5.8v1.2z"/><path id="path4939" d="M1203.4 326.4h-5.3v-7.9h5.1v1.2h-3.9v2h2.3v1.2h-2.3v2.5h4.1v1z"/><path id="path4941" d="M1211.1 320.9c0 1.3-.7 2.1-1.7 2.3l1.6 3.2h-1.4l-1.6-3.1h-1.8v3.1h-1.2v-7.9h3.5c1.4 0 2.6.7 2.6 2.4zm-1.2 0c0-.8-.5-1.3-1.3-1.3h-2.3v2.6h2.3c.7 0 1.3-.4 1.3-1.3z"/></g><g id="g4959"><path id="path4945" d="M19.7 325c-.6 1-1.5 1.5-2.7 1.5-2.1 0-3.4-1.7-3.4-4.1s1.3-4.1 3.4-4.1c1.3 0 2.2.5 2.7 1.5l-1.1.7c-.4-.6-.8-1-1.6-1-1.4 0-2.1 1.1-2.1 2.9 0 1.8.7 2.9 2.1 2.9.8 0 1.3-.3 1.7-1l1 .7z"/><path id="path4947" d="M27.5 322.5c0 2.5-1.4 4.1-3.4 4.1s-3.4-1.6-3.4-4.1 1.4-4.1 3.4-4.1 3.4 1.6 3.4 4.1zm-1.2 0c0-1.8-.9-2.9-2.2-2.9-1.3 0-2.1 1.1-2.1 2.9s.9 2.9 2.2 2.9c1.2 0 2.1-1.1 2.1-2.9z"/><path id="path4949" d="M35.2 326.4h-1.1l-3.2-5c-.2-.3-.5-.8-.6-1v5.9h-1.2v-7.9h1.2l3 4.8c.2.3.5.9.7 1.1v-6h1.2v8.1z"/><path id="path4951" d="M42.6 319.7h-2.3v6.8h-1.2v-6.8h-2.3v-1.2h5.8v1.2z"/><path id="path4953" d="M50.2 320.9c0 1.3-.7 2.1-1.7 2.3l1.6 3.2h-1.4l-1.6-3.1h-1.8v3.1h-1.2v-7.9h3.5c1.4 0 2.6.7 2.6 2.4zm-1.2 0c0-.8-.5-1.3-1.3-1.3h-2.3v2.6h2.3c.7 0 1.3-.4 1.3-1.3z"/><path id="path4955" d="M58.2 322.5c0 2.5-1.4 4.1-3.4 4.1s-3.4-1.6-3.4-4.1 1.4-4.1 3.4-4.1 3.4 1.6 3.4 4.1zm-1.2 0c0-1.8-.9-2.9-2.2-2.9-1.3 0-2.1 1.1-2.1 2.9s.9 2.9 2.2 2.9c1.2 0 2.1-1.1 2.1-2.9z"/><path id="path4957" d="M65 326.4h-5.1v-7.9h1.2v6.8h4v1.1z"/></g><path id="path4961" d="M111 302.8v8.8h-8.7v-8.8h8.7zm-4.8 4v-3.2H103v3.2h3.2zm0 .8H103v3.2h3.2v-3.2zm.8-.8h3.3v-3.3H107v3.3zm0 .8v3.2h3.3v-3.2H107z"/><g id="g4969"><path id="path4963" d="m105.3 318.5-1.6 7.9h-1.2l-1.2-5.1c-.1-.3-.2-.9-.2-1.1 0 .2-.2.8-.2 1.1l-1.3 5.1h-1.2l-1.6-7.9H98l1 5c0 .2.1.8.2 1 0-.3.2-.8.2-1l1.3-5h1l1.3 5.1c.1.2.1.6.2.9.1-.3.1-.7.2-.9l1-5.1h.9z"/><path id="path4965" d="M108.2 326.4H107v-7.9h1.2v7.9z"/><path id="path4967" d="M116.3 326.4h-1.1l-3.2-5c-.2-.3-.5-.8-.6-1v5.9h-1.2v-7.9h1.2l3 4.8c.2.3.5.9.7 1.1v-6h1.2v8.1z"/></g><path id="path4971" d="M180.1 302v1H177l-4.6 9.2h-4v-1h3.2l4.6-9.2h3.9zm-4.7 10.3v-1h4.8v1h-4.8z"/><g id="g4979"><path id="path4973" d="M171.6 326.4h-1.3l-.7-1.9h-3.2l-.7 1.9h-1.2l2.9-7.9h1.3l2.9 7.9zm-2.3-2.9-.6-1.8-.6-1.8-.6 1.8-.6 1.8h2.4z"/><path id="path4975" d="M178.4 326.4h-5.1v-7.9h1.2v6.8h4v1.1z"/><path id="path4977" d="M183.9 319.7h-2.3v6.8h-1.2v-6.8H178v-1.2h5.8v1.2z"/></g><path id="path4981" d="M374.8 309.2v-2h.7v1.4h2.6v-1.4h.7v2h-4z"/><g id="g4993"><path id="path4983" d="M365.1 324.2c0 1.4-.9 2.4-2.9 2.4-1.2 0-2.2-.5-2.8-1.3l.9-.8c.5.6 1.3.9 2.1.9 1.1 0 1.6-.4 1.6-1.2 0-.6-.5-.9-1.8-1.3-1.7-.5-2.5-.9-2.5-2.3s1.2-2.2 2.6-2.2c1.1 0 1.9.4 2.6 1.1l-.8.8c-.5-.5-1.1-.8-1.8-.8-.9 0-1.3.5-1.3 1 0 .6.4.8 1.7 1.2 1.5.5 2.4 1 2.4 2.5z"/><path id="path4985" d="M372.8 321c0 1.6-1.1 2.5-2.6 2.5h-2.1v3h-1.2v-7.9h3.3c1.5-.1 2.6.7 2.6 2.4zm-1.2 0c0-.9-.5-1.4-1.4-1.4h-2.1v2.7h2.1c.9.1 1.4-.5 1.4-1.3z"/><path id="path4987" d="M380 326.4h-1.3l-.7-1.9h-3.2l-.7 1.9H373l2.9-7.9h1.3l2.8 7.9zm-2.3-2.9-.6-1.8-.6-1.8-.6 1.8-.6 1.8h2.4z"/><path id="path4989" d="M387.1 325c-.6 1-1.5 1.5-2.7 1.5-2.1 0-3.4-1.7-3.4-4.1s1.3-4.1 3.4-4.1c1.3 0 2.2.5 2.7 1.5l-1.1.7c-.4-.6-.8-1-1.6-1-1.4 0-2.1 1.1-2.1 2.9 0 1.8.7 2.9 2.1 2.9.8 0 1.3-.3 1.7-1l1 .7z"/><path id="path4991" d="M394.1 326.4h-5.3v-7.9h5.1v1.2H390v2h2.3v1.2H390v2.5h4.1v1z"/></g><path id="path4995" d="M573.4 311.2h3.2l4.6-9.2h4v1H582l-4.6 9.2h-4v-1zm7 0h4.8v1h-4.8v-1z"/><g id="g5003"><path id="path4997" d="M576.7 326.4h-1.3l-.7-1.9h-3.2l-.7 1.9h-1.2l2.9-7.9h1.3l2.9 7.9zm-2.3-2.9-.6-1.8-.6-1.8-.6 1.8-.6 1.8h2.4z"/><path id="path4999" d="M583.4 326.4h-5.1v-7.9h1.2v6.8h4v1.1z"/><path id="path5001" d="M588.9 319.7h-2.3v6.8h-1.2v-6.8H583v-1.2h5.8v1.2z"/></g><path id="path5005" d="M651.1 302.8v8.8h-8.7v-8.8h8.7zm-4.8 4v-3.2h-3.2v3.2h3.2zm0 .8h-3.2v3.2h3.2v-3.2zm.8-.8h3.3v-3.3h-3.3v3.3zm0 .8v3.2h3.3v-3.2h-3.3z"/><g id="g5013"><path id="path5007" d="m645.3 318.5-1.6 7.9h-1.2l-1.2-5.1c-.1-.3-.2-.9-.2-1.1 0 .2-.2.8-.2 1.1l-1.3 5.1h-1.2l-1.6-7.9h1.2l1 5c0 .2.1.8.2 1 0-.3.2-.8.2-1l1.3-5h1l1.3 5.1c.1.2.1.6.2.9.1-.3.1-.7.2-.9l1-5.1h.9z"/><path id="path5009" d="M648.2 326.4H647v-7.9h1.2v7.9z"/><path id="path5011" d="M656.3 326.4h-1.1l-3.2-5c-.2-.3-.5-.8-.6-1v5.9h-1.2v-7.9h1.2l3 4.8c.2.3.5.9.7 1.1v-6h1.2v8.1z"/></g><path id="path5015" d="M710.6 303.4h7.3v1.2h-7.3v-1.2zm0 2.5h7.3v1.2h-7.3v-1.2zm0 2.5h7.3v1.2h-7.3v-1.2zm0 2.5h7.3v1.2h-7.3v-1.2z"/><g id="g5025"><path id="path5017" d="M706.3 326.3h-1.2v-5.6c-.1.2-.3.8-.5 1.2l-1.9 4.5-1.9-4.5c-.2-.5-.4-1-.5-1.2v5.6h-1.1v-7.9h1.2l1.8 4.2c.2.5.4 1 .5 1.4.1-.3.3-.9.5-1.4l1.7-4.2h1.3v7.9z"/><path id="path5019" d="M713.6 326.3h-5.3v-7.9h5.1v1.2h-3.9v2h2.3v1.2h-2.3v2.5h4.1v1z"/><path id="path5021" d="M721.3 326.3h-1.1l-3.2-5c-.2-.3-.5-.8-.6-1v5.9h-1.2v-7.9h1.2l3 4.8c.2.3.5.9.7 1.1v-6h1.2v8.1z"/><path id="path5023" d="M729.4 323c0 2.2-1.1 3.4-3 3.4-2 0-3-1.3-3-3.5v-4.6h1.2v4.6c0 1.5.6 2.3 1.8 2.3 1.2 0 1.8-.8 1.8-2.2v-4.6h1.2v4.6z"/></g><path id="path5027" d="M781.2 313.6v-1.4c-1.5-.2-2.7-.9-3.6-2.1l-1.2.7-.5-.9 1.2-.7c-.3-.7-.4-1.4-.4-2.1 0-.7.1-1.4.4-2.1l-1.2-.7.5-.9 1.2.7c.9-1.2 2.1-1.9 3.6-2.1v-1.4h1v1.4c1.5.2 2.7.9 3.6 2.1l1.2-.7.5.9-1.2.7c.3.7.5 1.4.5 2.1 0 .7-.2 1.4-.5 2.1l1.2.7-.5.9-1.2-.7c-.9 1.2-2.1 1.9-3.6 2.1v1.4h-1zm-3.2-8c-.2.5-.3 1-.3 1.6 0 .5.1 1.1.3 1.6l2.8-1.6-2.8-1.6zm3.2-2.5c-1.1.1-2 .7-2.7 1.6l2.8 1.6v-3.2zm-2.7 6.5c.7.9 1.6 1.4 2.7 1.6V308l-2.7 1.6zm6.5-4.9c-.7-.9-1.6-1.4-2.7-1.6v3.2l2.7-1.6zm-2.7 6.5c1.1-.1 2-.7 2.7-1.6l-2.8-1.6v3.2zm3.2-2.5c.2-.5.3-1 .3-1.6 0-.5-.1-1.1-.3-1.6l-2.8 1.6 2.8 1.6z"/><path id="path5029" d="M38.7 313.6v-1.4c-1.5-.2-2.7-.9-3.6-2.1l-1.2.7-.5-.9 1.2-.7c-.3-.7-.4-1.4-.4-2.1 0-.7.1-1.4.4-2.1l-1.2-.7.5-.9 1.2.7c.9-1.2 2.1-1.9 3.6-2.1v-1.4h1v1.4c1.5.2 2.7.9 3.6 2.1l1.2-.7.5.9-1.2.7c.3.7.5 1.4.5 2.1 0 .7-.2 1.4-.5 2.1l1.2.7-.5.9-1.2-.7c-.9 1.2-2.1 1.9-3.6 2.1v1.4h-1zm-3.2-8c-.2.5-.3 1-.3 1.6 0 .5.1 1.1.3 1.6l2.8-1.6-2.8-1.6zm3.2-2.5c-1.1.1-2 .7-2.7 1.6l2.8 1.6v-3.2zm-2.7 6.5c.7.9 1.6 1.4 2.7 1.6V308l-2.7 1.6zm6.5-4.9c-.7-.9-1.6-1.4-2.7-1.6v3.2l2.7-1.6zm-2.7 6.5c1.1-.1 2-.7 2.7-1.6l-2.8-1.6v3.2zm3.2-2.5c.2-.5.3-1 .3-1.6 0-.5-.1-1.1-.3-1.6l-2.8 1.6 2.8 1.6z"/><g id="g5045"><path id="path5031" d="M762.2 325c-.6 1-1.5 1.5-2.7 1.5-2.1 0-3.4-1.7-3.4-4.1s1.3-4.1 3.4-4.1c1.3 0 2.2.5 2.7 1.5l-1.1.7c-.4-.6-.8-1-1.6-1-1.4 0-2.1 1.1-2.1 2.9 0 1.8.7 2.9 2.1 2.9.8 0 1.3-.3 1.7-1l1 .7z"/><path id="path5033" d="M770 322.5c0 2.5-1.4 4.1-3.4 4.1s-3.4-1.6-3.4-4.1 1.4-4.1 3.4-4.1 3.4 1.6 3.4 4.1zm-1.2 0c0-1.8-.9-2.9-2.2-2.9-1.3 0-2.1 1.1-2.1 2.9s.9 2.9 2.2 2.9c1.2 0 2.1-1.1 2.1-2.9z"/><path id="path5035" d="M777.7 326.4h-1.1l-3.2-5c-.2-.3-.5-.8-.6-1v5.9h-1.2v-7.9h1.2l3 4.8c.2.3.5.9.7 1.1v-6h1.2v8.1z"/><path id="path5037" d="M785.1 319.7h-2.3v6.8h-1.2v-6.8h-2.3v-1.2h5.8v1.2z"/><path id="path5039" d="M792.7 320.9c0 1.3-.7 2.1-1.7 2.3l1.6 3.2h-1.4l-1.6-3.1h-1.8v3.1h-1.2v-7.9h3.5c1.4 0 2.6.7 2.6 2.4zm-1.2 0c0-.8-.5-1.3-1.3-1.3h-2.3v2.6h2.3c.7 0 1.3-.4 1.3-1.3z"/><path id="path5041" d="M800.7 322.5c0 2.5-1.4 4.1-3.4 4.1s-3.4-1.6-3.4-4.1 1.4-4.1 3.4-4.1 3.4 1.6 3.4 4.1zm-1.2 0c0-1.8-.9-2.9-2.2-2.9-1.3 0-2.1 1.1-2.1 2.9s.9 2.9 2.2 2.9c1.2 0 2.1-1.1 2.1-2.9z"/><path id="path5043" d="M807.5 326.4h-5.1v-7.9h1.2v6.8h4v1.1z"/></g></g><ellipse id="path5133" cx="738.14" cy="266.501" rx="33.559" ry="32.483" style="fill:none;stroke:red;stroke-width:5.3111;stroke-linecap:round;stroke-linejoin:round"/><path id="path5285" d="m646.682 253.87 46.388-18.281-17.045-43.252L668 210.8l-57.996-25.206-10.289 23.673 56.156 24.406z" style="fill:#fe7777;fill-opacity:1;stroke:red;stroke-width:2.7008;stroke-linecap:round;stroke-linejoin:round;stroke-miterlimit:4;stroke-dasharray:none;stroke-opacity:1"/></svg>